G04*
G04 #@! TF.GenerationSoftware,Altium Limited,Altium Designer,25.4.2 (15)*
G04*
G04 Layer_Physical_Order=1*
G04 Layer_Color=255*
%FSLAX44Y44*%
%MOMM*%
G71*
G04*
G04 #@! TF.SameCoordinates,3D3B79ED-C25D-4AD1-BF19-93120AF13695*
G04*
G04*
G04 #@! TF.FilePolarity,Positive*
G04*
G01*
G75*
G04:AMPARAMS|DCode=10|XSize=0.6mm|YSize=0.8mm|CornerRadius=0.075mm|HoleSize=0mm|Usage=FLASHONLY|Rotation=0.000|XOffset=0mm|YOffset=0mm|HoleType=Round|Shape=RoundedRectangle|*
%AMROUNDEDRECTD10*
21,1,0.6000,0.6500,0,0,0.0*
21,1,0.4500,0.8000,0,0,0.0*
1,1,0.1500,0.2250,-0.3250*
1,1,0.1500,-0.2250,-0.3250*
1,1,0.1500,-0.2250,0.3250*
1,1,0.1500,0.2250,0.3250*
%
%ADD10ROUNDEDRECTD10*%
G04:AMPARAMS|DCode=11|XSize=0.8mm|YSize=1.25mm|CornerRadius=0.1mm|HoleSize=0mm|Usage=FLASHONLY|Rotation=270.000|XOffset=0mm|YOffset=0mm|HoleType=Round|Shape=RoundedRectangle|*
%AMROUNDEDRECTD11*
21,1,0.8000,1.0500,0,0,270.0*
21,1,0.6000,1.2500,0,0,270.0*
1,1,0.2000,-0.5250,-0.3000*
1,1,0.2000,-0.5250,0.3000*
1,1,0.2000,0.5250,0.3000*
1,1,0.2000,0.5250,-0.3000*
%
%ADD11ROUNDEDRECTD11*%
G04:AMPARAMS|DCode=12|XSize=1mm|YSize=1.5mm|CornerRadius=0.125mm|HoleSize=0mm|Usage=FLASHONLY|Rotation=90.000|XOffset=0mm|YOffset=0mm|HoleType=Round|Shape=RoundedRectangle|*
%AMROUNDEDRECTD12*
21,1,1.0000,1.2500,0,0,90.0*
21,1,0.7500,1.5000,0,0,90.0*
1,1,0.2500,0.6250,0.3750*
1,1,0.2500,0.6250,-0.3750*
1,1,0.2500,-0.6250,-0.3750*
1,1,0.2500,-0.6250,0.3750*
%
%ADD12ROUNDEDRECTD12*%
G04:AMPARAMS|DCode=13|XSize=2mm|YSize=2.2mm|CornerRadius=0.25mm|HoleSize=0mm|Usage=FLASHONLY|Rotation=0.000|XOffset=0mm|YOffset=0mm|HoleType=Round|Shape=RoundedRectangle|*
%AMROUNDEDRECTD13*
21,1,2.0000,1.7000,0,0,0.0*
21,1,1.5000,2.2000,0,0,0.0*
1,1,0.5000,0.7500,-0.8500*
1,1,0.5000,-0.7500,-0.8500*
1,1,0.5000,-0.7500,0.8500*
1,1,0.5000,0.7500,0.8500*
%
%ADD13ROUNDEDRECTD13*%
G04:AMPARAMS|DCode=14|XSize=1mm|YSize=1.5mm|CornerRadius=0.125mm|HoleSize=0mm|Usage=FLASHONLY|Rotation=0.000|XOffset=0mm|YOffset=0mm|HoleType=Round|Shape=RoundedRectangle|*
%AMROUNDEDRECTD14*
21,1,1.0000,1.2500,0,0,0.0*
21,1,0.7500,1.5000,0,0,0.0*
1,1,0.2500,0.3750,-0.6250*
1,1,0.2500,-0.3750,-0.6250*
1,1,0.2500,-0.3750,0.6250*
1,1,0.2500,0.3750,0.6250*
%
%ADD14ROUNDEDRECTD14*%
G04:AMPARAMS|DCode=15|XSize=1.2mm|YSize=1.5mm|CornerRadius=0.15mm|HoleSize=0mm|Usage=FLASHONLY|Rotation=0.000|XOffset=0mm|YOffset=0mm|HoleType=Round|Shape=RoundedRectangle|*
%AMROUNDEDRECTD15*
21,1,1.2000,1.2000,0,0,0.0*
21,1,0.9000,1.5000,0,0,0.0*
1,1,0.3000,0.4500,-0.6000*
1,1,0.3000,-0.4500,-0.6000*
1,1,0.3000,-0.4500,0.6000*
1,1,0.3000,0.4500,0.6000*
%
%ADD15ROUNDEDRECTD15*%
G04:AMPARAMS|DCode=16|XSize=2mm|YSize=2.2mm|CornerRadius=0.25mm|HoleSize=0mm|Usage=FLASHONLY|Rotation=270.000|XOffset=0mm|YOffset=0mm|HoleType=Round|Shape=RoundedRectangle|*
%AMROUNDEDRECTD16*
21,1,2.0000,1.7000,0,0,270.0*
21,1,1.5000,2.2000,0,0,270.0*
1,1,0.5000,-0.8500,-0.7500*
1,1,0.5000,-0.8500,0.7500*
1,1,0.5000,0.8500,0.7500*
1,1,0.5000,0.8500,-0.7500*
%
%ADD16ROUNDEDRECTD16*%
G04:AMPARAMS|DCode=17|XSize=1.55mm|YSize=0.6mm|CornerRadius=0.075mm|HoleSize=0mm|Usage=FLASHONLY|Rotation=90.000|XOffset=0mm|YOffset=0mm|HoleType=Round|Shape=RoundedRectangle|*
%AMROUNDEDRECTD17*
21,1,1.5500,0.4500,0,0,90.0*
21,1,1.4000,0.6000,0,0,90.0*
1,1,0.1500,0.2250,0.7000*
1,1,0.1500,0.2250,-0.7000*
1,1,0.1500,-0.2250,-0.7000*
1,1,0.1500,-0.2250,0.7000*
%
%ADD17ROUNDEDRECTD17*%
G04:AMPARAMS|DCode=18|XSize=1.2mm|YSize=1.5mm|CornerRadius=0.15mm|HoleSize=0mm|Usage=FLASHONLY|Rotation=270.000|XOffset=0mm|YOffset=0mm|HoleType=Round|Shape=RoundedRectangle|*
%AMROUNDEDRECTD18*
21,1,1.2000,1.2000,0,0,270.0*
21,1,0.9000,1.5000,0,0,270.0*
1,1,0.3000,-0.6000,-0.4500*
1,1,0.3000,-0.6000,0.4500*
1,1,0.3000,0.6000,0.4500*
1,1,0.3000,0.6000,-0.4500*
%
%ADD18ROUNDEDRECTD18*%
G04:AMPARAMS|DCode=19|XSize=3mm|YSize=1.6mm|CornerRadius=0.2mm|HoleSize=0mm|Usage=FLASHONLY|Rotation=270.000|XOffset=0mm|YOffset=0mm|HoleType=Round|Shape=RoundedRectangle|*
%AMROUNDEDRECTD19*
21,1,3.0000,1.2000,0,0,270.0*
21,1,2.6000,1.6000,0,0,270.0*
1,1,0.4000,-0.6000,-1.3000*
1,1,0.4000,-0.6000,1.3000*
1,1,0.4000,0.6000,1.3000*
1,1,0.4000,0.6000,-1.3000*
%
%ADD19ROUNDEDRECTD19*%
G04:AMPARAMS|DCode=20|XSize=2.45mm|YSize=2.5mm|CornerRadius=0.3063mm|HoleSize=0mm|Usage=FLASHONLY|Rotation=270.000|XOffset=0mm|YOffset=0mm|HoleType=Round|Shape=RoundedRectangle|*
%AMROUNDEDRECTD20*
21,1,2.4500,1.8875,0,0,270.0*
21,1,1.8375,2.5000,0,0,270.0*
1,1,0.6125,-0.9438,-0.9188*
1,1,0.6125,-0.9438,0.9188*
1,1,0.6125,0.9438,0.9188*
1,1,0.6125,0.9438,-0.9188*
%
%ADD20ROUNDEDRECTD20*%
G04:AMPARAMS|DCode=21|XSize=1mm|YSize=1.7mm|CornerRadius=0.125mm|HoleSize=0mm|Usage=FLASHONLY|Rotation=0.000|XOffset=0mm|YOffset=0mm|HoleType=Round|Shape=RoundedRectangle|*
%AMROUNDEDRECTD21*
21,1,1.0000,1.4500,0,0,0.0*
21,1,0.7500,1.7000,0,0,0.0*
1,1,0.2500,0.3750,-0.7250*
1,1,0.2500,-0.3750,-0.7250*
1,1,0.2500,-0.3750,0.7250*
1,1,0.2500,0.3750,0.7250*
%
%ADD21ROUNDEDRECTD21*%
%ADD22C,1.0000*%
%ADD23C,0.5000*%
%ADD24C,0.2540*%
%ADD25C,3.5000*%
G04:AMPARAMS|DCode=26|XSize=1.95mm|YSize=1.95mm|CornerRadius=0.4875mm|HoleSize=0mm|Usage=FLASHONLY|Rotation=270.000|XOffset=0mm|YOffset=0mm|HoleType=Round|Shape=RoundedRectangle|*
%AMROUNDEDRECTD26*
21,1,1.9500,0.9750,0,0,270.0*
21,1,0.9750,1.9500,0,0,270.0*
1,1,0.9750,-0.4875,-0.4875*
1,1,0.9750,-0.4875,0.4875*
1,1,0.9750,0.4875,0.4875*
1,1,0.9750,0.4875,-0.4875*
%
%ADD26ROUNDEDRECTD26*%
%ADD27C,1.9500*%
%ADD28C,1.6000*%
G04:AMPARAMS|DCode=29|XSize=1.6mm|YSize=1.6mm|CornerRadius=0.4mm|HoleSize=0mm|Usage=FLASHONLY|Rotation=270.000|XOffset=0mm|YOffset=0mm|HoleType=Round|Shape=RoundedRectangle|*
%AMROUNDEDRECTD29*
21,1,1.6000,0.8000,0,0,270.0*
21,1,0.8000,1.6000,0,0,270.0*
1,1,0.8000,-0.4000,-0.4000*
1,1,0.8000,-0.4000,0.4000*
1,1,0.8000,0.4000,0.4000*
1,1,0.8000,0.4000,-0.4000*
%
%ADD29ROUNDEDRECTD29*%
G04:AMPARAMS|DCode=30|XSize=4mm|YSize=1.8mm|CornerRadius=0.225mm|HoleSize=0mm|Usage=FLASHONLY|Rotation=90.000|XOffset=0mm|YOffset=0mm|HoleType=Round|Shape=RoundedRectangle|*
%AMROUNDEDRECTD30*
21,1,4.0000,1.3500,0,0,90.0*
21,1,3.5500,1.8000,0,0,90.0*
1,1,0.4500,0.6750,1.7750*
1,1,0.4500,0.6750,-1.7750*
1,1,0.4500,-0.6750,-1.7750*
1,1,0.4500,-0.6750,1.7750*
%
%ADD30ROUNDEDRECTD30*%
G04:AMPARAMS|DCode=31|XSize=4mm|YSize=1.8mm|CornerRadius=0.225mm|HoleSize=0mm|Usage=FLASHONLY|Rotation=0.000|XOffset=0mm|YOffset=0mm|HoleType=Round|Shape=RoundedRectangle|*
%AMROUNDEDRECTD31*
21,1,4.0000,1.3500,0,0,0.0*
21,1,3.5500,1.8000,0,0,0.0*
1,1,0.4500,1.7750,-0.6750*
1,1,0.4500,-1.7750,-0.6750*
1,1,0.4500,-1.7750,0.6750*
1,1,0.4500,1.7750,0.6750*
%
%ADD31ROUNDEDRECTD31*%
%ADD32C,2.0000*%
G36*
X355600Y1072372D02*
X1216660D01*
X1216710Y1072382D01*
X1217828Y1072159D01*
X1218818Y1071498D01*
X1219479Y1070508D01*
X1219702Y1069390D01*
X1219692Y1069340D01*
Y1049020D01*
Y379730D01*
X1219710Y379637D01*
X1219445Y377622D01*
X1218632Y375659D01*
X1217338Y373972D01*
X1215651Y372678D01*
X1213688Y371865D01*
X1211673Y371600D01*
X1211580Y371618D01*
X1109550D01*
X1109181Y372834D01*
X1109715Y373190D01*
X1112709Y376185D01*
X1115062Y379706D01*
X1116683Y383619D01*
X1117509Y387772D01*
Y392008D01*
X1117488Y392114D01*
X1127777Y402402D01*
X1165652D01*
X1167577Y400477D01*
X1170713Y398667D01*
X1174210Y397730D01*
X1177830D01*
X1181327Y398667D01*
X1184463Y400477D01*
X1187023Y403037D01*
X1188833Y406173D01*
X1189770Y409670D01*
Y413290D01*
X1188833Y416787D01*
X1187023Y419923D01*
X1184463Y422483D01*
X1181327Y424293D01*
X1177830Y425230D01*
X1174210D01*
X1170713Y424293D01*
X1167577Y422483D01*
X1165652Y420558D01*
X1124017D01*
X1124017Y420558D01*
X1121667Y420248D01*
X1119478Y419342D01*
X1117598Y417899D01*
X1117598Y417899D01*
X1107661Y407962D01*
X1106193Y408943D01*
X1102281Y410564D01*
X1098127Y411390D01*
X1093892D01*
X1089738Y410564D01*
X1085825Y408943D01*
X1082304Y406590D01*
X1079309Y403595D01*
X1076956Y400074D01*
X1075335Y396161D01*
X1074509Y392008D01*
Y387772D01*
X1075335Y383619D01*
X1076956Y379706D01*
X1079309Y376185D01*
X1082304Y373190D01*
X1082837Y372834D01*
X1082468Y371618D01*
X987551D01*
X987183Y372834D01*
X987716Y373190D01*
X990711Y376185D01*
X993064Y379706D01*
X994684Y383619D01*
X995510Y387772D01*
Y392008D01*
X994684Y396161D01*
X993064Y400074D01*
X990711Y403595D01*
X987716Y406590D01*
X984195Y408943D01*
X980282Y410564D01*
X976128Y411390D01*
X971893D01*
X967739Y410564D01*
X963826Y408943D01*
X960305Y406590D01*
X957310Y403595D01*
X954957Y400074D01*
X954499Y398968D01*
X942290D01*
X904326Y436932D01*
Y446650D01*
X904103Y448347D01*
X903448Y449928D01*
X902406Y451286D01*
X901048Y452328D01*
X899467Y452983D01*
X897770Y453206D01*
X882770D01*
X881073Y452983D01*
X879492Y452328D01*
X878134Y451286D01*
X877092Y449928D01*
X876437Y448347D01*
X876214Y446650D01*
Y432366D01*
X866964Y423116D01*
X859787D01*
X859755Y423165D01*
X858101Y424270D01*
X856150Y424658D01*
X845650D01*
X843699Y424270D01*
X842045Y423165D01*
X840940Y421511D01*
X840552Y419560D01*
Y417734D01*
X833394Y410576D01*
X812204D01*
X812124Y410695D01*
X810553Y411744D01*
X808700Y412113D01*
X804200D01*
X802347Y411744D01*
X800776Y410695D01*
X799726Y409123D01*
X799357Y407270D01*
Y400770D01*
X799726Y398917D01*
X800776Y397346D01*
X802347Y396296D01*
X804200Y395927D01*
X808700D01*
X810553Y396296D01*
X812124Y397346D01*
X812204Y397464D01*
X836110D01*
X837807Y397687D01*
X839388Y398342D01*
X840746Y399384D01*
X849824Y408462D01*
X856150D01*
X858101Y408850D01*
X859755Y409955D01*
X859787Y410004D01*
X869680D01*
X871377Y410227D01*
X872958Y410882D01*
X874316Y411924D01*
X885486Y423094D01*
X892488D01*
X932111Y383471D01*
X933991Y382029D01*
X936180Y381122D01*
X938530Y380812D01*
X954499D01*
X954957Y379706D01*
X957310Y376185D01*
X960305Y373190D01*
X960838Y372834D01*
X960470Y371618D01*
X355600D01*
X355507Y371600D01*
X353493Y371865D01*
X351529Y372678D01*
X349842Y373972D01*
X348548Y375659D01*
X347735Y377622D01*
X347470Y379637D01*
X347488Y379730D01*
Y1050290D01*
Y1064260D01*
X347470Y1064353D01*
X347735Y1066367D01*
X348548Y1068331D01*
X349842Y1070018D01*
X351529Y1071312D01*
X353493Y1072125D01*
X355507Y1072390D01*
X355600Y1072372D01*
D02*
G37*
%LPC*%
G36*
X1180895Y1050146D02*
X1171145D01*
X1168828Y1049842D01*
X1166669Y1048947D01*
X1164815Y1047525D01*
X1163393Y1045671D01*
X1162498Y1043512D01*
X1162193Y1041195D01*
Y1031445D01*
X1162498Y1029128D01*
X1163393Y1026969D01*
X1164815Y1025115D01*
X1166669Y1023693D01*
X1168828Y1022798D01*
X1171145Y1022493D01*
X1180895D01*
X1183212Y1022798D01*
X1185371Y1023693D01*
X1187225Y1025115D01*
X1188647Y1026969D01*
X1189541Y1029128D01*
X1189847Y1031445D01*
Y1041195D01*
X1189541Y1043512D01*
X1188647Y1045671D01*
X1187225Y1047525D01*
X1185371Y1048947D01*
X1183212Y1049842D01*
X1180895Y1050146D01*
D02*
G37*
G36*
X1009650Y1053098D02*
X1009650Y1053098D01*
X951230Y1053098D01*
X949669Y1052788D01*
X948346Y1051904D01*
X948346Y1051904D01*
X936916Y1040474D01*
X936916Y1040474D01*
X936032Y1039151D01*
X935722Y1037590D01*
X935722Y1037590D01*
X935722Y1031109D01*
X905441Y1000829D01*
X903998Y998949D01*
X903092Y996759D01*
X902782Y994410D01*
Y951860D01*
X900378Y949456D01*
X897942D01*
X896260Y951138D01*
X894380Y952580D01*
X892190Y953487D01*
X889841Y953797D01*
X859818D01*
X859691Y953822D01*
X854676D01*
X835609Y972889D01*
X833729Y974332D01*
X831540Y975238D01*
X829190Y975548D01*
X789940D01*
X789940Y975548D01*
X787591Y975238D01*
X785401Y974332D01*
X783521Y972889D01*
X773602Y962969D01*
X772428Y963455D01*
Y1015794D01*
X773636Y1017002D01*
X796957Y1017002D01*
X797454Y1015732D01*
X796524Y1014339D01*
X796116Y1012291D01*
Y1004791D01*
X796524Y1002743D01*
X797684Y1001006D01*
X799421Y999846D01*
X801469Y999438D01*
X813969D01*
X816017Y999846D01*
X817754Y1001006D01*
X818354Y1001904D01*
X844499D01*
X844585Y1001775D01*
X846239Y1000670D01*
X848190Y1000282D01*
X858690D01*
X860641Y1000670D01*
X862295Y1001775D01*
X863400Y1003429D01*
X863788Y1005380D01*
Y1011380D01*
X863400Y1013331D01*
X862295Y1014985D01*
X860641Y1016090D01*
X858690Y1016478D01*
X848190D01*
X846239Y1016090D01*
X844633Y1015017D01*
X818462D01*
X817754Y1016076D01*
X816910Y1016640D01*
Y1018167D01*
X816954Y1018196D01*
X816954Y1018196D01*
X823304Y1024546D01*
X824188Y1025869D01*
X824498Y1027430D01*
X824498Y1027430D01*
Y1043940D01*
X824498Y1043940D01*
X824188Y1045501D01*
X823304Y1046824D01*
X823304Y1046824D01*
X818224Y1051904D01*
X816901Y1052788D01*
X815340Y1053098D01*
X815340Y1053098D01*
X753110D01*
X753110Y1053098D01*
X751549Y1052788D01*
X750226Y1051904D01*
X746416Y1048094D01*
X745532Y1046771D01*
X745222Y1045210D01*
X745222Y1045210D01*
Y1027430D01*
X745532Y1025869D01*
X746416Y1024546D01*
X746416Y1024546D01*
X747762Y1023201D01*
Y1022350D01*
Y942340D01*
X747762Y942340D01*
X748072Y940779D01*
X748956Y939456D01*
X752766Y935646D01*
X754089Y934762D01*
X755650Y934452D01*
X755650Y934452D01*
X765810D01*
X767371Y934762D01*
X768694Y935646D01*
X768694Y935646D01*
X771234Y938186D01*
X772118Y939509D01*
X772235Y940100D01*
X772647D01*
X774997Y940409D01*
X777186Y941316D01*
X779066Y942758D01*
X793700Y957392D01*
X825430D01*
X841838Y940984D01*
Y940969D01*
X842246Y938921D01*
X843406Y937184D01*
X845143Y936024D01*
X847191Y935616D01*
X859691D01*
X859818Y935641D01*
X885104D01*
Y925900D01*
X885327Y924203D01*
X885982Y922622D01*
X887024Y921264D01*
X888382Y920222D01*
X889963Y919567D01*
X891660Y919344D01*
X906660D01*
X908357Y919567D01*
X909938Y920222D01*
X911296Y921264D01*
X912338Y922622D01*
X912993Y924203D01*
X913216Y925900D01*
Y936618D01*
X918279Y941681D01*
X919722Y943561D01*
X920628Y945751D01*
X920938Y948100D01*
Y990650D01*
X940795Y1010507D01*
X947076Y1004226D01*
X947076Y1004226D01*
X948399Y1003342D01*
X949960Y1003032D01*
X949960Y1003032D01*
X985101D01*
X1006842Y981291D01*
Y884339D01*
X1000341Y877838D01*
X960120D01*
X960120Y877838D01*
X958559Y877528D01*
X957236Y876644D01*
X949616Y869024D01*
X948732Y867701D01*
X948422Y866140D01*
X948422Y866140D01*
Y858354D01*
X939716D01*
X939716Y858354D01*
X937367Y858045D01*
X935177Y857138D01*
X933297Y855695D01*
X888948Y811346D01*
X882946D01*
X878287Y816005D01*
X876929Y817047D01*
X875348Y817702D01*
X873651Y817925D01*
X859598D01*
X858944Y818904D01*
X857207Y820064D01*
X855159Y820472D01*
X842659D01*
X840611Y820064D01*
X838874Y818904D01*
X837714Y817167D01*
X837306Y815119D01*
Y807619D01*
X837714Y805571D01*
X838874Y803834D01*
X840611Y802674D01*
X842659Y802266D01*
X855159D01*
X857207Y802674D01*
X858944Y803834D01*
X859598Y804813D01*
X870935D01*
X873674Y802074D01*
Y787790D01*
X873897Y786093D01*
X874552Y784512D01*
X875594Y783154D01*
X876952Y782112D01*
X878533Y781457D01*
X880230Y781234D01*
X895230D01*
X896927Y781457D01*
X898508Y782112D01*
X899866Y783154D01*
X900908Y784512D01*
X901563Y786093D01*
X901786Y787790D01*
Y798508D01*
X943476Y840199D01*
X948900D01*
X949616Y839126D01*
X949616Y839126D01*
X958506Y830236D01*
X959829Y829352D01*
X961390Y829042D01*
X961390Y829042D01*
X997801D01*
X1006842Y820001D01*
Y710349D01*
X1002881Y706388D01*
X963930D01*
X963930Y706388D01*
X962369Y706078D01*
X961046Y705194D01*
X953426Y697574D01*
X952542Y696251D01*
X952232Y694690D01*
X952232Y694690D01*
Y691687D01*
X927040D01*
X924690Y691378D01*
X922501Y690471D01*
X920621Y689029D01*
X920621Y689028D01*
X892758Y661166D01*
X886756D01*
X879237Y668685D01*
X877879Y669727D01*
X876298Y670382D01*
X874601Y670605D01*
X862312D01*
X861658Y671584D01*
X859921Y672744D01*
X857873Y673152D01*
X845373D01*
X843325Y672744D01*
X841588Y671584D01*
X840428Y669847D01*
X840020Y667799D01*
Y660299D01*
X840428Y658251D01*
X841588Y656514D01*
X843325Y655354D01*
X845373Y654946D01*
X857873D01*
X859921Y655354D01*
X861658Y656514D01*
X862312Y657493D01*
X871885D01*
X877484Y651894D01*
Y637610D01*
X877707Y635913D01*
X878362Y634332D01*
X879404Y632974D01*
X880762Y631932D01*
X882343Y631277D01*
X884040Y631054D01*
X899040D01*
X900737Y631277D01*
X902318Y631932D01*
X903676Y632974D01*
X904718Y634332D01*
X905373Y635913D01*
X905596Y637610D01*
Y648328D01*
X930800Y673532D01*
X952232D01*
Y670560D01*
X952232Y670560D01*
X952542Y668999D01*
X953426Y667676D01*
X953426Y667676D01*
X962316Y658786D01*
X963639Y657902D01*
X965200Y657592D01*
X965200Y657592D01*
X1001611D01*
X1006842Y652361D01*
Y548847D01*
X996310Y536208D01*
X963507D01*
X962877Y536083D01*
X962240Y536007D01*
X962101Y535929D01*
X961946Y535898D01*
X961412Y535541D01*
X960852Y535227D01*
X951116Y526881D01*
X951018Y526756D01*
X950886Y526668D01*
X950529Y526134D01*
X950133Y525629D01*
X950090Y525477D01*
X950002Y525345D01*
X949877Y524715D01*
X949704Y524097D01*
X949723Y523940D01*
X949692Y523784D01*
Y498409D01*
X938511Y487228D01*
X904250D01*
X904103Y488347D01*
X903448Y489928D01*
X902406Y491286D01*
X901048Y492328D01*
X899467Y492983D01*
X897770Y493206D01*
X882770D01*
X881073Y492983D01*
X879492Y492328D01*
X878134Y491286D01*
X877351Y490265D01*
X861590D01*
X860936Y491244D01*
X859199Y492404D01*
X857151Y492812D01*
X844651D01*
X842603Y492404D01*
X840866Y491244D01*
X839706Y489507D01*
X839298Y487459D01*
Y479959D01*
X839706Y477911D01*
X840866Y476174D01*
X842603Y475014D01*
X844651Y474606D01*
X857151D01*
X859199Y475014D01*
X860936Y476174D01*
X861590Y477153D01*
X876214D01*
Y469650D01*
X876437Y467953D01*
X877092Y466372D01*
X878134Y465014D01*
X879492Y463972D01*
X881073Y463317D01*
X882770Y463094D01*
X897770D01*
X899467Y463317D01*
X901048Y463972D01*
X902406Y465014D01*
X903448Y466372D01*
X904103Y467953D01*
X904250Y469072D01*
X941734D01*
X942120Y467802D01*
X940305Y466590D01*
X937310Y463595D01*
X934958Y460074D01*
X933337Y456161D01*
X932511Y452007D01*
Y447772D01*
X933337Y443619D01*
X934958Y439706D01*
X937310Y436184D01*
X940305Y433190D01*
X943827Y430837D01*
X947739Y429216D01*
X951893Y428390D01*
X956128D01*
X960282Y429216D01*
X964195Y430837D01*
X967716Y433190D01*
X970711Y436184D01*
X973064Y439706D01*
X974684Y443619D01*
X975510Y447772D01*
Y452007D01*
X974684Y456161D01*
X973064Y460074D01*
X970711Y463595D01*
X967716Y466590D01*
X964195Y468943D01*
X960282Y470564D01*
X956128Y471390D01*
X951893D01*
X949710Y470956D01*
X949085Y472126D01*
X963100Y486142D01*
X1023620D01*
X1023620Y486142D01*
X1025181Y486452D01*
X1026504Y487336D01*
X1026504Y487336D01*
X1059524Y520356D01*
X1060408Y521679D01*
X1060718Y523240D01*
X1060718Y523240D01*
Y1002030D01*
X1060718Y1002030D01*
X1060408Y1003591D01*
X1059524Y1004914D01*
X1012534Y1051904D01*
X1011211Y1052788D01*
X1010952Y1052839D01*
X1009650Y1053098D01*
D02*
G37*
G36*
X658030Y1035528D02*
X647530D01*
X645579Y1035140D01*
X643925Y1034035D01*
X642820Y1032381D01*
X642432Y1030430D01*
Y1024430D01*
X642820Y1022479D01*
X643925Y1020825D01*
X645579Y1019720D01*
X646224Y1019592D01*
Y1010911D01*
X644483Y1010564D01*
X642746Y1009404D01*
X641586Y1007667D01*
X641178Y1005619D01*
Y998119D01*
X641586Y996071D01*
X642746Y994334D01*
X644483Y993174D01*
X646531Y992766D01*
X659031D01*
X661079Y993174D01*
X662816Y994334D01*
X663976Y996071D01*
X664384Y998119D01*
Y1005619D01*
X663976Y1007667D01*
X662816Y1009404D01*
X661079Y1010564D01*
X659337Y1010911D01*
Y1019592D01*
X659981Y1019720D01*
X661635Y1020825D01*
X662740Y1022479D01*
X663128Y1024430D01*
Y1030430D01*
X662740Y1032381D01*
X661635Y1034035D01*
X659981Y1035140D01*
X658030Y1035528D01*
D02*
G37*
G36*
X1089237Y1050820D02*
X1085002D01*
X1080848Y1049994D01*
X1076935Y1048373D01*
X1073414Y1046020D01*
X1070419Y1043025D01*
X1068066Y1039504D01*
X1066445Y1035591D01*
X1065619Y1031437D01*
Y1027202D01*
X1066445Y1023048D01*
X1068066Y1019136D01*
X1070419Y1015614D01*
X1073414Y1012620D01*
X1076935Y1010267D01*
X1080848Y1008646D01*
X1085002Y1007820D01*
X1089237D01*
X1093391Y1008646D01*
X1094497Y1009104D01*
X1124500Y979101D01*
X1126380Y977658D01*
X1128570Y976752D01*
X1130919Y976442D01*
X1165652D01*
X1167577Y974517D01*
X1170713Y972707D01*
X1174210Y971770D01*
X1177830D01*
X1181327Y972707D01*
X1184463Y974517D01*
X1187023Y977077D01*
X1188833Y980213D01*
X1189770Y983710D01*
Y987330D01*
X1188833Y990827D01*
X1187023Y993963D01*
X1184463Y996523D01*
X1181327Y998333D01*
X1177830Y999270D01*
X1174210D01*
X1170713Y998333D01*
X1167577Y996523D01*
X1165652Y994598D01*
X1134679D01*
X1107335Y1021942D01*
X1107793Y1023048D01*
X1108619Y1027202D01*
Y1031437D01*
X1107793Y1035591D01*
X1106172Y1039504D01*
X1103819Y1043025D01*
X1100825Y1046020D01*
X1097303Y1048373D01*
X1093391Y1049994D01*
X1089237Y1050820D01*
D02*
G37*
G36*
X947238Y990820D02*
X943003D01*
X938849Y989994D01*
X934937Y988373D01*
X931415Y986020D01*
X928420Y983025D01*
X926068Y979504D01*
X924447Y975591D01*
X923621Y971438D01*
Y967202D01*
X924447Y963049D01*
X926068Y959136D01*
X928420Y955614D01*
X931415Y952620D01*
X934937Y950267D01*
X938849Y948646D01*
X943003Y947820D01*
X947238D01*
X951392Y948646D01*
X955305Y950267D01*
X958826Y952620D01*
X961821Y955614D01*
X964174Y959136D01*
X965794Y963049D01*
X966620Y967202D01*
Y971438D01*
X965794Y975591D01*
X964174Y979504D01*
X961821Y983025D01*
X958826Y986020D01*
X955305Y988373D01*
X951392Y989994D01*
X947238Y990820D01*
D02*
G37*
G36*
X499518Y954841D02*
X480643D01*
X478799Y954598D01*
X477081Y953887D01*
X475606Y952755D01*
X474473Y951279D01*
X473762Y949561D01*
X473519Y947718D01*
Y944643D01*
X438909D01*
X438019Y945237D01*
X435580Y945722D01*
X400080D01*
X397641Y945237D01*
X395574Y943856D01*
X394193Y941789D01*
X393708Y939350D01*
Y925850D01*
X394193Y923411D01*
X395574Y921344D01*
X397641Y919963D01*
X400080Y919478D01*
X435580D01*
X438019Y919963D01*
X440086Y921344D01*
X441467Y923411D01*
X441952Y925850D01*
Y926487D01*
X474181D01*
X474473Y925781D01*
X475606Y924305D01*
X477081Y923173D01*
X478799Y922462D01*
X480643Y922219D01*
X499518D01*
X501361Y922462D01*
X503079Y923173D01*
X504554Y924305D01*
X505687Y925781D01*
X506398Y927499D01*
X506641Y929342D01*
Y947718D01*
X506398Y949561D01*
X505687Y951279D01*
X504554Y952755D01*
X503079Y953887D01*
X501361Y954598D01*
X499518Y954841D01*
D02*
G37*
G36*
X1177830Y948470D02*
X1174210D01*
X1170713Y947533D01*
X1167577Y945723D01*
X1165017Y943163D01*
X1163207Y940027D01*
X1162270Y936530D01*
Y933808D01*
X1146860Y918398D01*
X1106631D01*
X1106172Y919504D01*
X1103819Y923025D01*
X1100825Y926020D01*
X1097303Y928373D01*
X1093391Y929994D01*
X1089237Y930820D01*
X1085002D01*
X1080848Y929994D01*
X1076935Y928373D01*
X1073414Y926020D01*
X1070419Y923025D01*
X1068066Y919504D01*
X1066445Y915591D01*
X1065619Y911438D01*
Y907202D01*
X1066445Y903049D01*
X1068066Y899136D01*
X1070419Y895615D01*
X1073414Y892620D01*
X1076935Y890267D01*
X1080848Y888646D01*
X1085002Y887820D01*
X1089237D01*
X1093391Y888646D01*
X1097303Y890267D01*
X1100825Y892620D01*
X1103819Y895615D01*
X1106172Y899136D01*
X1106631Y900242D01*
X1150620D01*
X1152970Y900552D01*
X1155159Y901459D01*
X1157039Y902901D01*
X1175108Y920970D01*
X1177830D01*
X1181327Y921907D01*
X1184463Y923717D01*
X1187023Y926277D01*
X1188833Y929413D01*
X1189770Y932910D01*
Y936530D01*
X1188833Y940027D01*
X1187023Y943163D01*
X1184463Y945723D01*
X1181327Y947533D01*
X1177830Y948470D01*
D02*
G37*
G36*
X967238Y930820D02*
X963003D01*
X958849Y929994D01*
X954936Y928373D01*
X951415Y926020D01*
X948420Y923025D01*
X946067Y919504D01*
X944447Y915591D01*
X943621Y911438D01*
Y907423D01*
X939675Y903478D01*
X913140D01*
X912993Y904597D01*
X912338Y906178D01*
X911296Y907536D01*
X909938Y908578D01*
X908357Y909233D01*
X906660Y909456D01*
X891660D01*
X889963Y909233D01*
X888382Y908578D01*
X887024Y907536D01*
X885982Y906178D01*
X885327Y904597D01*
X885104Y902900D01*
Y888616D01*
X884424Y887936D01*
X863597D01*
X863565Y887985D01*
X861911Y889090D01*
X859960Y889478D01*
X849460D01*
X847509Y889090D01*
X845855Y887985D01*
X844750Y886331D01*
X844362Y884380D01*
Y882554D01*
X823394Y861586D01*
X815404D01*
X815324Y861704D01*
X813753Y862754D01*
X811900Y863123D01*
X807400D01*
X805547Y862754D01*
X803976Y861704D01*
X802926Y860133D01*
X802557Y858280D01*
Y851780D01*
X802926Y849927D01*
X803976Y848355D01*
X805547Y847306D01*
X807400Y846937D01*
X811900D01*
X813753Y847306D01*
X815324Y848355D01*
X815404Y848474D01*
X826110D01*
X827807Y848697D01*
X829388Y849352D01*
X830746Y850394D01*
X853634Y873282D01*
X859960D01*
X861911Y873670D01*
X863565Y874775D01*
X863597Y874824D01*
X887140D01*
X888837Y875047D01*
X890418Y875702D01*
X891776Y876744D01*
X894376Y879344D01*
X906660D01*
X908357Y879567D01*
X909938Y880222D01*
X911296Y881264D01*
X912338Y882622D01*
X912993Y884203D01*
X913140Y885322D01*
X943436D01*
X945785Y885632D01*
X947974Y886538D01*
X949854Y887981D01*
X953260Y891387D01*
X954936Y890267D01*
X958849Y888646D01*
X963003Y887820D01*
X967238D01*
X971392Y888646D01*
X975305Y890267D01*
X978826Y892620D01*
X981821Y895615D01*
X984174Y899136D01*
X985794Y903049D01*
X986620Y907202D01*
Y911438D01*
X985794Y915591D01*
X984174Y919504D01*
X981821Y923025D01*
X978826Y926020D01*
X975305Y928373D01*
X971392Y929994D01*
X967238Y930820D01*
D02*
G37*
G36*
X859691Y933822D02*
X847191D01*
X845143Y933414D01*
X843406Y932254D01*
X842246Y930517D01*
X841838Y928469D01*
Y920969D01*
X842246Y918921D01*
X843406Y917184D01*
X845143Y916024D01*
X847191Y915616D01*
X847519D01*
Y909412D01*
X847509Y909410D01*
X845855Y908305D01*
X844750Y906651D01*
X844362Y904700D01*
Y898700D01*
X844750Y896749D01*
X845855Y895095D01*
X847509Y893990D01*
X849460Y893602D01*
X859960D01*
X861911Y893990D01*
X863565Y895095D01*
X864670Y896749D01*
X865058Y898700D01*
Y904700D01*
X864670Y906651D01*
X863565Y908305D01*
X861911Y909410D01*
X860632Y909664D01*
Y915803D01*
X861739Y916024D01*
X863476Y917184D01*
X864636Y918921D01*
X865044Y920969D01*
Y928469D01*
X864636Y930517D01*
X863476Y932254D01*
X861739Y933414D01*
X859691Y933822D01*
D02*
G37*
G36*
X629370Y893553D02*
X624870D01*
X623017Y893184D01*
X621445Y892134D01*
X620396Y890563D01*
X620027Y888710D01*
Y874710D01*
X620396Y872857D01*
X621445Y871285D01*
X623017Y870236D01*
X624870Y869867D01*
X629370D01*
X631223Y870236D01*
X632794Y871285D01*
X633844Y872857D01*
X634213Y874710D01*
Y888710D01*
X633844Y890563D01*
X632794Y892134D01*
X631223Y893184D01*
X629370Y893553D01*
D02*
G37*
G36*
X730180Y1050376D02*
X713180D01*
X711483Y1050153D01*
X709902Y1049498D01*
X708544Y1048456D01*
X707502Y1047098D01*
X706847Y1045517D01*
X706624Y1043820D01*
Y1035038D01*
X705631Y1034627D01*
X704273Y1033585D01*
X661183Y990495D01*
X661079Y990564D01*
X659031Y990972D01*
X646531D01*
X644483Y990564D01*
X642746Y989404D01*
X641586Y987667D01*
X641178Y985619D01*
Y978119D01*
X641586Y976070D01*
X642746Y974334D01*
X644483Y973174D01*
X646531Y972766D01*
X659031D01*
X661079Y973174D01*
X662816Y974334D01*
X663976Y976070D01*
X664174Y977066D01*
X665189Y977199D01*
X666770Y977854D01*
X668128Y978896D01*
X711332Y1022101D01*
X712602Y1021687D01*
Y985100D01*
X688271Y960769D01*
X686829Y958889D01*
X685922Y956700D01*
X685612Y954350D01*
Y863670D01*
X633422Y811480D01*
X632034Y811888D01*
X632016Y811974D01*
X633058Y813332D01*
X633713Y814913D01*
X633936Y816610D01*
Y819318D01*
X634213Y820710D01*
Y834710D01*
X633844Y836563D01*
X632794Y838135D01*
X631223Y839184D01*
X629370Y839553D01*
X624870D01*
X623017Y839184D01*
X621445Y838135D01*
X621405Y838074D01*
X620135D01*
X620094Y838135D01*
X618523Y839184D01*
X616670Y839553D01*
X612170D01*
X610317Y839184D01*
X608745Y838135D01*
X608705Y838074D01*
X607435D01*
X607394Y838135D01*
X605823Y839184D01*
X603970Y839553D01*
X599470D01*
X597617Y839184D01*
X596045Y838135D01*
X596005Y838074D01*
X594735D01*
X594695Y838135D01*
X593123Y839184D01*
X591270Y839553D01*
X586770D01*
X584917Y839184D01*
X583345Y838135D01*
X582296Y836563D01*
X581927Y834710D01*
Y833083D01*
X576986D01*
X562788Y847281D01*
Y854290D01*
X562361Y856436D01*
X561145Y858255D01*
X559969Y859041D01*
Y860539D01*
X561145Y861325D01*
X562361Y863144D01*
X562614Y864417D01*
X568800D01*
X570856Y864826D01*
X572599Y865991D01*
X580746Y874137D01*
X582124Y873719D01*
X582296Y872857D01*
X583345Y871285D01*
X584917Y870236D01*
X586770Y869867D01*
X591270D01*
X593123Y870236D01*
X594695Y871285D01*
X594735Y871346D01*
X596005D01*
X596045Y871285D01*
X597617Y870236D01*
X599470Y869867D01*
X603970D01*
X605823Y870236D01*
X607394Y871285D01*
X608444Y872857D01*
X608813Y874710D01*
Y888710D01*
X608444Y890563D01*
X607776Y891563D01*
Y894716D01*
X609008Y906937D01*
X609558Y907759D01*
X609868Y909320D01*
X609868Y909320D01*
Y1004570D01*
X609868Y1004570D01*
X609558Y1006131D01*
X608674Y1007454D01*
X604864Y1011264D01*
X603541Y1012148D01*
X601980Y1012458D01*
X601980Y1012458D01*
X565569D01*
X559068Y1018959D01*
Y1037590D01*
X559068Y1037590D01*
X558758Y1039151D01*
X557874Y1040474D01*
X554064Y1044284D01*
X552741Y1045168D01*
X551180Y1045478D01*
X551180Y1045478D01*
X525780D01*
X524219Y1045168D01*
X522896Y1044284D01*
X522896Y1044284D01*
X520356Y1041744D01*
X519472Y1040421D01*
X519162Y1038860D01*
X519162Y1038860D01*
Y1013460D01*
X519472Y1011899D01*
X520356Y1010576D01*
X520356Y1010576D01*
X529322Y1001611D01*
Y991615D01*
X528052Y991229D01*
X527394Y992214D01*
X527394Y992214D01*
X526124Y993484D01*
X524801Y994368D01*
X523240Y994678D01*
X523240Y994678D01*
X513080D01*
X511519Y994368D01*
X510196Y993484D01*
X510196Y993484D01*
X507656Y990944D01*
X506772Y989621D01*
X506462Y988060D01*
X506462Y988060D01*
Y956310D01*
X506772Y954749D01*
X507656Y953426D01*
X517892Y943191D01*
Y929640D01*
X517892Y929640D01*
X518202Y928079D01*
X519086Y926756D01*
X522896Y922946D01*
X524219Y922062D01*
X525780Y921752D01*
X525780Y921752D01*
X547370D01*
X548931Y922062D01*
X550254Y922946D01*
X550254Y922946D01*
X552794Y925486D01*
X553678Y926809D01*
X553988Y928370D01*
X553988Y928370D01*
Y949960D01*
X553988Y949960D01*
X553678Y951521D01*
X552794Y952844D01*
X548984Y956654D01*
X547661Y957538D01*
X546100Y957848D01*
X546100Y957848D01*
X532549D01*
X528588Y961809D01*
Y971805D01*
X529858Y972191D01*
X530516Y971206D01*
X530516Y971206D01*
X534326Y967396D01*
X534326Y967396D01*
X535649Y966512D01*
X537210Y966202D01*
X537210Y966202D01*
X586321D01*
X587742Y964781D01*
Y909320D01*
X587742Y909320D01*
X588052Y907759D01*
X588936Y906436D01*
X588936Y906436D01*
X590206Y905166D01*
X591529Y904282D01*
X592746Y904040D01*
X594664Y896369D01*
Y893502D01*
X593544Y892903D01*
X593123Y893184D01*
X591270Y893553D01*
X586770D01*
X584917Y893184D01*
X583345Y892134D01*
X582296Y890563D01*
X581927Y888710D01*
Y887083D01*
X580720D01*
X578664Y886674D01*
X576921Y885509D01*
X566574Y875163D01*
X562614D01*
X562361Y876436D01*
X561145Y878255D01*
X559326Y879471D01*
X557180Y879898D01*
X545180D01*
X543034Y879471D01*
X541215Y878255D01*
X539999Y876436D01*
X539572Y874290D01*
Y867281D01*
X529600Y857309D01*
X528436Y855566D01*
X528027Y853510D01*
Y838200D01*
X528436Y836144D01*
X529600Y834400D01*
X547077Y816924D01*
Y800368D01*
X544034D01*
X543962Y800354D01*
X543890Y800366D01*
X543184Y800199D01*
X542473Y800058D01*
X542412Y800017D01*
X542341Y800000D01*
X541753Y799576D01*
X541150Y799174D01*
X541109Y799113D01*
X541050Y799070D01*
X540669Y798454D01*
X540266Y797851D01*
X540252Y797779D01*
X540213Y797716D01*
X540088Y797382D01*
X539872Y797100D01*
X536866Y794094D01*
X536866Y794094D01*
X535982Y792771D01*
X535672Y791210D01*
X535672Y791210D01*
Y774700D01*
X535982Y773139D01*
X536866Y771816D01*
X536866Y771816D01*
X539406Y769276D01*
X540729Y768392D01*
X542290Y768082D01*
X542290Y768082D01*
X563880D01*
X565441Y768392D01*
X566764Y769276D01*
X566764Y769276D01*
X571919Y774432D01*
X609600D01*
X611161Y774742D01*
X612484Y775626D01*
X612484Y775626D01*
X614332Y777475D01*
X615602Y776949D01*
Y449370D01*
X595680Y429448D01*
X585629D01*
X584726Y430051D01*
X582580Y430478D01*
X570580D01*
X568434Y430051D01*
X567531Y429448D01*
X557689D01*
X556786Y430051D01*
X554640Y430478D01*
X542640D01*
X540494Y430051D01*
X539591Y429448D01*
X508273D01*
X507748Y429972D01*
X505012Y431552D01*
X501960Y432370D01*
X498800D01*
X495748Y431552D01*
X493012Y429972D01*
X492487Y429448D01*
X453443D01*
X453443Y429448D01*
X451094Y429138D01*
X448904Y428232D01*
X447024Y426789D01*
X440793Y420558D01*
X406427D01*
X405946Y421186D01*
X404274Y422468D01*
X402328Y423274D01*
X400240Y423549D01*
X398160D01*
X398085Y423662D01*
X398650Y425102D01*
X400872Y425698D01*
X403608Y427278D01*
X405842Y429512D01*
X407422Y432248D01*
X408240Y435300D01*
Y438460D01*
X407997Y439366D01*
X445326Y476694D01*
X446368Y478052D01*
X447023Y479633D01*
X447246Y481330D01*
Y535764D01*
X487517Y576035D01*
X488655Y575378D01*
X488380Y574350D01*
Y571190D01*
X489198Y568138D01*
X490778Y565402D01*
X493012Y563168D01*
X495748Y561588D01*
X498800Y560770D01*
X501960D01*
X505012Y561588D01*
X507748Y563168D01*
X509982Y565402D01*
X511562Y568138D01*
X512380Y571190D01*
Y574350D01*
X511562Y577402D01*
X509982Y580138D01*
X507748Y582372D01*
X505012Y583952D01*
X501960Y584770D01*
X498800D01*
X498162Y584599D01*
X497494Y585735D01*
X498097Y586358D01*
X498800Y586170D01*
X501960D01*
X505012Y586988D01*
X507748Y588568D01*
X509982Y590802D01*
X511562Y593538D01*
X512380Y596590D01*
Y599750D01*
X511562Y602802D01*
X509982Y605538D01*
X507748Y607772D01*
X505012Y609352D01*
X501960Y610170D01*
X498800D01*
X495748Y609352D01*
X493012Y607772D01*
X490778Y605538D01*
X489198Y602802D01*
X488380Y599750D01*
Y596590D01*
X488623Y595684D01*
X436054Y543116D01*
X435012Y541758D01*
X434357Y540177D01*
X434134Y538480D01*
Y484046D01*
X398726Y448637D01*
X397820Y448880D01*
X394660D01*
X391608Y448062D01*
X388872Y446482D01*
X386638Y444248D01*
X385058Y441512D01*
X384240Y438460D01*
Y437977D01*
X383067Y437491D01*
X372298Y448260D01*
Y486460D01*
X397009Y511171D01*
X400240D01*
X402328Y511446D01*
X404274Y512252D01*
X405946Y513534D01*
X407228Y515205D01*
X408034Y517152D01*
X408309Y519240D01*
Y527240D01*
X408034Y529328D01*
X407228Y531274D01*
X405946Y532946D01*
X404274Y534228D01*
X402328Y535034D01*
X400240Y535309D01*
X397009D01*
X373568Y558750D01*
Y767130D01*
X385267Y778829D01*
X386534Y778964D01*
X388205Y777682D01*
X390152Y776876D01*
X392240Y776601D01*
X400240D01*
X402328Y776876D01*
X404274Y777682D01*
X405946Y778964D01*
X407228Y780636D01*
X408034Y782582D01*
X408309Y784670D01*
Y792670D01*
X408034Y794758D01*
X407228Y796704D01*
X405946Y798376D01*
X404274Y799658D01*
X402328Y800464D01*
X400240Y800739D01*
X392240D01*
X390152Y800464D01*
X388205Y799658D01*
X386534Y798376D01*
X385707Y797298D01*
X381820D01*
X379470Y796988D01*
X377281Y796081D01*
X375401Y794639D01*
X358071Y777309D01*
X356628Y775429D01*
X355722Y773239D01*
X355412Y770890D01*
Y554990D01*
X355722Y552641D01*
X356628Y550451D01*
X358071Y548571D01*
X383402Y523240D01*
X356801Y496639D01*
X355359Y494759D01*
X354452Y492569D01*
X354142Y490220D01*
Y444500D01*
X354452Y442151D01*
X355359Y439961D01*
X356801Y438081D01*
X384171Y410711D01*
Y407480D01*
X384446Y405392D01*
X385252Y403446D01*
X386534Y401774D01*
X388205Y400492D01*
X390152Y399686D01*
X392240Y399411D01*
X400240D01*
X402328Y399686D01*
X404274Y400492D01*
X405946Y401774D01*
X406427Y402402D01*
X444553D01*
X446903Y402712D01*
X449092Y403619D01*
X450972Y405061D01*
X457203Y411292D01*
X492487D01*
X493012Y410768D01*
X495748Y409188D01*
X498800Y408370D01*
X501960D01*
X505012Y409188D01*
X507748Y410768D01*
X508273Y411292D01*
X539591D01*
X540494Y410689D01*
X542640Y410262D01*
X554640D01*
X556786Y410689D01*
X557689Y411292D01*
X567531D01*
X568434Y410689D01*
X570580Y410262D01*
X582580D01*
X584726Y410689D01*
X585629Y411292D01*
X599440D01*
X601789Y411602D01*
X603979Y412509D01*
X605859Y413951D01*
X631099Y439191D01*
X631099Y439191D01*
X632542Y441071D01*
X633448Y443260D01*
X633758Y445610D01*
Y781023D01*
X633783Y781150D01*
Y786165D01*
X701109Y853491D01*
X701109Y853491D01*
X702551Y855371D01*
X703458Y857561D01*
X703768Y859910D01*
Y950590D01*
X728099Y974921D01*
X728099Y974921D01*
X729541Y976801D01*
X730448Y978990D01*
X730758Y981340D01*
X730758Y981340D01*
Y1022340D01*
X731877Y1022487D01*
X733458Y1023142D01*
X734816Y1024184D01*
X735858Y1025542D01*
X736513Y1027123D01*
X736736Y1028820D01*
Y1043820D01*
X736513Y1045517D01*
X735858Y1047098D01*
X734816Y1048456D01*
X733458Y1049498D01*
X731877Y1050153D01*
X730180Y1050376D01*
D02*
G37*
G36*
X800259Y940005D02*
X800006Y939972D01*
X797779D01*
X795731Y939564D01*
X793994Y938404D01*
X792834Y936667D01*
X792426Y934619D01*
Y922119D01*
X792834Y920071D01*
X793994Y918334D01*
X795731Y917174D01*
X797779Y916766D01*
X798680D01*
X799393Y915837D01*
X804466Y910764D01*
X803941Y909494D01*
X797781D01*
X795733Y909086D01*
X793996Y907926D01*
X792836Y906189D01*
X792428Y904141D01*
Y903926D01*
X791960D01*
X790263Y903703D01*
X788682Y903048D01*
X787324Y902006D01*
X776414Y891096D01*
X775372Y889738D01*
X774717Y888157D01*
X774494Y886460D01*
Y876476D01*
X758769Y860751D01*
X757748Y861772D01*
X755012Y863352D01*
X751960Y864170D01*
X748800D01*
X745748Y863352D01*
X743012Y861772D01*
X740778Y859538D01*
X739198Y856802D01*
X738380Y853750D01*
Y850590D01*
X739198Y847538D01*
X740778Y844802D01*
X743012Y842568D01*
X745748Y840988D01*
X748800Y840170D01*
X751960D01*
X755012Y840988D01*
X757748Y842568D01*
X759982Y844802D01*
X761303Y847090D01*
X762577Y847258D01*
X764158Y847912D01*
X765516Y848954D01*
X785686Y869124D01*
X786728Y870482D01*
X787383Y872063D01*
X787606Y873760D01*
Y883744D01*
X792376Y888514D01*
X793640Y888390D01*
X793996Y887856D01*
X795733Y886696D01*
X797781Y886288D01*
X805281D01*
X807329Y886696D01*
X809066Y887856D01*
X810226Y889593D01*
X810634Y891641D01*
Y901949D01*
X811904Y902584D01*
X812428Y902191D01*
Y891641D01*
X812594Y890808D01*
Y880385D01*
X812426Y880133D01*
X812057Y878280D01*
Y871780D01*
X812426Y869927D01*
X813475Y868355D01*
X815047Y867306D01*
X816900Y866937D01*
X821400D01*
X823253Y867306D01*
X824825Y868355D01*
X825874Y869927D01*
X826243Y871780D01*
Y878280D01*
X825874Y880133D01*
X825706Y880385D01*
Y886373D01*
X827329Y886696D01*
X829066Y887856D01*
X830226Y889593D01*
X830634Y891641D01*
Y904141D01*
X830226Y906189D01*
X829066Y907926D01*
X827329Y909086D01*
X825281Y909494D01*
X824165D01*
X823786Y909988D01*
X810632Y923142D01*
Y934619D01*
X810224Y936667D01*
X809064Y938404D01*
X807327Y939564D01*
X805279Y939972D01*
X800511D01*
X800259Y940005D01*
D02*
G37*
G36*
X504380Y889639D02*
X496380D01*
X494292Y889364D01*
X492346Y888558D01*
X490674Y887276D01*
X489392Y885604D01*
X488586Y883658D01*
X488311Y881570D01*
Y873570D01*
X488586Y871482D01*
X489392Y869536D01*
X490674Y867864D01*
X492346Y866582D01*
X494292Y865776D01*
X496380Y865501D01*
X504380D01*
X506468Y865776D01*
X508414Y866582D01*
X510086Y867864D01*
X511368Y869536D01*
X512174Y871482D01*
X512449Y873570D01*
Y881570D01*
X512174Y883658D01*
X511368Y885604D01*
X510086Y887276D01*
X508414Y888558D01*
X506468Y889364D01*
X504380Y889639D01*
D02*
G37*
G36*
X397820Y876870D02*
X394660D01*
X391608Y876052D01*
X388872Y874472D01*
X386638Y872238D01*
X385058Y869502D01*
X384240Y866450D01*
Y863290D01*
X385058Y860238D01*
X386638Y857502D01*
X388872Y855268D01*
X391608Y853688D01*
X394660Y852870D01*
X397820D01*
X400872Y853688D01*
X403608Y855268D01*
X405842Y857502D01*
X407422Y860238D01*
X408240Y863290D01*
Y866450D01*
X407422Y869502D01*
X405842Y872238D01*
X403608Y874472D01*
X400872Y876052D01*
X397820Y876870D01*
D02*
G37*
G36*
X1180895Y875733D02*
X1171145D01*
X1168828Y875428D01*
X1166669Y874534D01*
X1164815Y873111D01*
X1163393Y871257D01*
X1162498Y869099D01*
X1162193Y866782D01*
Y857032D01*
X1162498Y854715D01*
X1163393Y852556D01*
X1164815Y850702D01*
X1166669Y849279D01*
X1168828Y848385D01*
X1171145Y848080D01*
X1180895D01*
X1183212Y848385D01*
X1185371Y849279D01*
X1187225Y850702D01*
X1188647Y852556D01*
X1189541Y854715D01*
X1189847Y857032D01*
Y866782D01*
X1189541Y869099D01*
X1188647Y871257D01*
X1187225Y873111D01*
X1185371Y874534D01*
X1183212Y875428D01*
X1180895Y875733D01*
D02*
G37*
G36*
X501960Y864170D02*
X498800D01*
X495748Y863352D01*
X493012Y861772D01*
X490778Y859538D01*
X489198Y856802D01*
X488380Y853750D01*
Y850590D01*
X489198Y847538D01*
X490778Y844802D01*
X493012Y842568D01*
X495748Y840988D01*
X498800Y840170D01*
X501960D01*
X505012Y840988D01*
X507748Y842568D01*
X509982Y844802D01*
X511562Y847538D01*
X512380Y850590D01*
Y853750D01*
X511562Y856802D01*
X509982Y859538D01*
X507748Y861772D01*
X505012Y863352D01*
X501960Y864170D01*
D02*
G37*
G36*
X751960Y838770D02*
X748800D01*
X745748Y837952D01*
X743012Y836372D01*
X740778Y834138D01*
X739198Y831402D01*
X738380Y828350D01*
Y825190D01*
X739198Y822138D01*
X740778Y819402D01*
X743012Y817168D01*
X745748Y815588D01*
X748800Y814770D01*
X751960D01*
X755012Y815588D01*
X757748Y817168D01*
X759982Y819402D01*
X761562Y822138D01*
X762380Y825190D01*
Y828350D01*
X761562Y831402D01*
X759982Y834138D01*
X757748Y836372D01*
X755012Y837952D01*
X751960Y838770D01*
D02*
G37*
G36*
X501960D02*
X498800D01*
X495748Y837952D01*
X493012Y836372D01*
X490778Y834138D01*
X489198Y831402D01*
X488380Y828350D01*
Y825190D01*
X489198Y822138D01*
X490778Y819402D01*
X493012Y817168D01*
X495748Y815588D01*
X498800Y814770D01*
X501960D01*
X505012Y815588D01*
X507748Y817168D01*
X509982Y819402D01*
X511562Y822138D01*
X512380Y825190D01*
Y828350D01*
X511562Y831402D01*
X509982Y834138D01*
X507748Y836372D01*
X505012Y837952D01*
X501960Y838770D01*
D02*
G37*
G36*
X1095587Y875560D02*
X1091352D01*
X1087198Y874734D01*
X1083285Y873113D01*
X1079764Y870760D01*
X1076769Y867765D01*
X1074416Y864244D01*
X1072795Y860331D01*
X1071969Y856177D01*
Y851942D01*
X1072795Y847788D01*
X1074416Y843876D01*
X1076769Y840354D01*
X1079764Y837360D01*
X1083285Y835007D01*
X1087198Y833386D01*
X1091352Y832560D01*
X1095587D01*
X1099741Y833386D01*
X1100847Y833844D01*
X1130004Y804688D01*
X1131883Y803245D01*
X1134073Y802338D01*
X1136422Y802029D01*
X1165652D01*
X1167577Y800104D01*
X1170713Y798294D01*
X1174210Y797357D01*
X1177830D01*
X1181327Y798294D01*
X1184463Y800104D01*
X1187023Y802664D01*
X1188833Y805799D01*
X1189770Y809296D01*
Y812917D01*
X1188833Y816414D01*
X1187023Y819549D01*
X1184463Y822109D01*
X1181327Y823920D01*
X1177830Y824857D01*
X1174210D01*
X1170713Y823920D01*
X1167577Y822109D01*
X1165652Y820184D01*
X1140182D01*
X1113685Y846682D01*
X1114143Y847788D01*
X1114969Y851942D01*
Y856177D01*
X1114143Y860331D01*
X1112522Y864244D01*
X1110169Y867765D01*
X1107175Y870760D01*
X1103653Y873113D01*
X1099741Y874734D01*
X1095587Y875560D01*
D02*
G37*
G36*
X751960Y813370D02*
X748800D01*
X745748Y812552D01*
X743012Y810972D01*
X740778Y808738D01*
X739198Y806002D01*
X738380Y802950D01*
Y799790D01*
X739198Y796738D01*
X740778Y794002D01*
X743012Y791768D01*
X745748Y790188D01*
X748800Y789370D01*
X751960D01*
X755012Y790188D01*
X757748Y791768D01*
X759982Y794002D01*
X761562Y796738D01*
X762380Y799790D01*
Y802950D01*
X761562Y806002D01*
X759982Y808738D01*
X757748Y810972D01*
X755012Y812552D01*
X751960Y813370D01*
D02*
G37*
G36*
X397820Y851470D02*
X394660D01*
X391608Y850652D01*
X388872Y849072D01*
X386638Y846838D01*
X385058Y844102D01*
X384240Y841050D01*
Y837890D01*
X385058Y834838D01*
X386638Y832102D01*
X388872Y829868D01*
X391608Y828288D01*
X394660Y827470D01*
X397820D01*
X400872Y828288D01*
X403608Y829868D01*
X405842Y832102D01*
X406311Y832914D01*
X434164D01*
X488623Y778456D01*
X488380Y777550D01*
Y774390D01*
X489198Y771338D01*
X490778Y768602D01*
X493012Y766368D01*
X495748Y764788D01*
X498800Y763970D01*
X501960D01*
X505012Y764788D01*
X507748Y766368D01*
X509982Y768602D01*
X511562Y771338D01*
X512380Y774390D01*
Y777550D01*
X511562Y780602D01*
X509982Y783338D01*
X507748Y785572D01*
X505012Y787152D01*
X501960Y787970D01*
X498800D01*
X498097Y787782D01*
X497494Y788405D01*
X498162Y789541D01*
X498800Y789370D01*
X501960D01*
X505012Y790188D01*
X507748Y791768D01*
X509982Y794002D01*
X511562Y796738D01*
X512380Y799790D01*
Y802950D01*
X511562Y806002D01*
X509982Y808738D01*
X507748Y810972D01*
X505012Y812552D01*
X501960Y813370D01*
X498800D01*
X495748Y812552D01*
X493012Y810972D01*
X490778Y808738D01*
X489198Y806002D01*
X488380Y802950D01*
Y799790D01*
X488655Y798762D01*
X487517Y798105D01*
X441516Y844106D01*
X440158Y845148D01*
X438577Y845803D01*
X436880Y846026D01*
X406311D01*
X405842Y846838D01*
X403608Y849072D01*
X400872Y850652D01*
X397820Y851470D01*
D02*
G37*
G36*
X953588Y815560D02*
X949353D01*
X945199Y814734D01*
X941286Y813113D01*
X937765Y810760D01*
X934770Y807765D01*
X932418Y804244D01*
X930797Y800331D01*
X929971Y796178D01*
Y791942D01*
X930797Y787789D01*
X932418Y783876D01*
X934770Y780354D01*
X937765Y777360D01*
X941286Y775007D01*
X945199Y773386D01*
X949353Y772560D01*
X953588D01*
X957742Y773386D01*
X961655Y775007D01*
X965176Y777360D01*
X968171Y780354D01*
X970524Y783876D01*
X972144Y787789D01*
X972971Y791942D01*
Y796178D01*
X972144Y800331D01*
X970524Y804244D01*
X968171Y807765D01*
X965176Y810760D01*
X961655Y813113D01*
X957742Y814734D01*
X953588Y815560D01*
D02*
G37*
G36*
X796391Y806624D02*
X788891D01*
X786843Y806216D01*
X785106Y805056D01*
X783946Y803319D01*
X783538Y801271D01*
Y792690D01*
X763130Y772281D01*
X761991Y772939D01*
X762380Y774390D01*
Y777550D01*
X761562Y780602D01*
X759982Y783338D01*
X757748Y785572D01*
X755012Y787152D01*
X751960Y787970D01*
X748800D01*
X745748Y787152D01*
X743012Y785572D01*
X740778Y783338D01*
X739198Y780602D01*
X738380Y777550D01*
Y774390D01*
X739198Y771338D01*
X740778Y768602D01*
X743012Y766368D01*
X745748Y764788D01*
X748800Y763970D01*
X751960D01*
X753411Y764359D01*
X754069Y763220D01*
X753110Y762262D01*
X751960Y762570D01*
X748800D01*
X745748Y761752D01*
X743012Y760172D01*
X740778Y757938D01*
X739198Y755202D01*
X738380Y752150D01*
Y748990D01*
X739198Y745938D01*
X740778Y743202D01*
X743012Y740968D01*
X745748Y739388D01*
X748800Y738570D01*
X751960D01*
X755012Y739388D01*
X757748Y740968D01*
X759982Y743202D01*
X761562Y745938D01*
X762380Y748990D01*
Y752150D01*
X762203Y752811D01*
X792810Y783418D01*
X796391D01*
X798439Y783826D01*
X800176Y784986D01*
X801336Y786723D01*
X801744Y788771D01*
Y801271D01*
X801336Y803319D01*
X800176Y805056D01*
X798439Y806216D01*
X796391Y806624D01*
D02*
G37*
G36*
X1177830Y774057D02*
X1174210D01*
X1170713Y773120D01*
X1167577Y771309D01*
X1165652Y769384D01*
X1119716D01*
X1119716Y769384D01*
X1117366Y769075D01*
X1115177Y768168D01*
X1113297Y766725D01*
X1100847Y754276D01*
X1099741Y754734D01*
X1095587Y755560D01*
X1091352D01*
X1087198Y754734D01*
X1083285Y753113D01*
X1079764Y750760D01*
X1076769Y747765D01*
X1074416Y744244D01*
X1072795Y740331D01*
X1071969Y736178D01*
Y731942D01*
X1072795Y727789D01*
X1074416Y723876D01*
X1076769Y720355D01*
X1079764Y717360D01*
X1083285Y715007D01*
X1087198Y713386D01*
X1091352Y712560D01*
X1095587D01*
X1099741Y713386D01*
X1103653Y715007D01*
X1107175Y717360D01*
X1110169Y720355D01*
X1112522Y723876D01*
X1114143Y727789D01*
X1114969Y731942D01*
Y736178D01*
X1114143Y740331D01*
X1113685Y741438D01*
X1123476Y751229D01*
X1165652D01*
X1167577Y749304D01*
X1170713Y747494D01*
X1174210Y746557D01*
X1177830D01*
X1181327Y747494D01*
X1184463Y749304D01*
X1187023Y751864D01*
X1188833Y754999D01*
X1189770Y758496D01*
Y762117D01*
X1188833Y765614D01*
X1187023Y768749D01*
X1184463Y771309D01*
X1181327Y773120D01*
X1177830Y774057D01*
D02*
G37*
G36*
X816391Y832024D02*
X808891D01*
X806843Y831616D01*
X805106Y830456D01*
X803946Y828719D01*
X803538Y826671D01*
Y814171D01*
X803946Y812123D01*
X805106Y810386D01*
X806843Y809226D01*
X807268Y809141D01*
Y806301D01*
X806843Y806216D01*
X805106Y805056D01*
X803946Y803319D01*
X803538Y801271D01*
Y788771D01*
X803946Y786723D01*
X805106Y784986D01*
X806843Y783826D01*
X807652Y783665D01*
Y778550D01*
X806686Y777103D01*
X806317Y775250D01*
Y768750D01*
X806686Y766897D01*
X807736Y765325D01*
X809307Y764276D01*
X811160Y763907D01*
X815660D01*
X817513Y764276D01*
X819084Y765325D01*
X820134Y766897D01*
X820503Y768750D01*
Y775250D01*
X820134Y777103D01*
X819084Y778674D01*
X818399Y779133D01*
Y783818D01*
X818439Y783826D01*
X820176Y784986D01*
X821336Y786723D01*
X821744Y788771D01*
Y801271D01*
X821336Y803319D01*
X820176Y805056D01*
X818439Y806216D01*
X818014Y806301D01*
Y809141D01*
X818439Y809226D01*
X820176Y810386D01*
X821336Y812123D01*
X821744Y814171D01*
Y826671D01*
X821336Y828719D01*
X820176Y830456D01*
X818439Y831616D01*
X816391Y832024D01*
D02*
G37*
G36*
X855159Y800472D02*
X842659D01*
X840611Y800064D01*
X838874Y798904D01*
X837714Y797167D01*
X837306Y795119D01*
Y787619D01*
X837714Y785571D01*
X838874Y783834D01*
X840611Y782674D01*
X842078Y782382D01*
Y778783D01*
X841159Y778600D01*
X839505Y777495D01*
X838400Y775841D01*
X838012Y773890D01*
Y767890D01*
X838400Y765939D01*
X839505Y764285D01*
X841159Y763180D01*
X843110Y762792D01*
X853610D01*
X855561Y763180D01*
X857215Y764285D01*
X858320Y765939D01*
X858708Y767890D01*
Y773890D01*
X858320Y775841D01*
X857215Y777495D01*
X855561Y778600D01*
X855191Y778674D01*
Y782272D01*
X857207Y782674D01*
X858944Y783834D01*
X860104Y785571D01*
X860512Y787619D01*
Y795119D01*
X860104Y797167D01*
X858944Y798904D01*
X857207Y800064D01*
X855159Y800472D01*
D02*
G37*
G36*
X895230Y771346D02*
X880230D01*
X878533Y771123D01*
X876952Y770468D01*
X875594Y769426D01*
X874552Y768068D01*
X873897Y766487D01*
X873674Y764790D01*
Y762846D01*
X868280D01*
X866583Y762623D01*
X865002Y761968D01*
X863644Y760926D01*
X859844Y757126D01*
X857247D01*
X857215Y757175D01*
X855561Y758280D01*
X853610Y758668D01*
X843110D01*
X841159Y758280D01*
X840502Y757841D01*
X810142D01*
X809585Y758674D01*
X808013Y759724D01*
X806160Y760093D01*
X801660D01*
X799807Y759724D01*
X798235Y758674D01*
X797186Y757103D01*
X796817Y755250D01*
Y748750D01*
X797186Y746897D01*
X798235Y745325D01*
X799807Y744276D01*
X801660Y743907D01*
X806160D01*
X808013Y744276D01*
X808692Y744729D01*
X838995D01*
X839505Y743965D01*
X841159Y742860D01*
X843110Y742472D01*
X853610D01*
X855561Y742860D01*
X857215Y743965D01*
X857247Y744014D01*
X862560D01*
X864257Y744237D01*
X865838Y744892D01*
X867196Y745934D01*
X870996Y749734D01*
X873674D01*
Y747790D01*
X873897Y746093D01*
X874552Y744512D01*
X875594Y743154D01*
X876952Y742112D01*
X878533Y741457D01*
X880230Y741234D01*
X895230D01*
X896927Y741457D01*
X898508Y742112D01*
X899866Y743154D01*
X900908Y744512D01*
X901563Y746093D01*
X901710Y747212D01*
X943979D01*
X950815Y740376D01*
X950797Y740331D01*
X949970Y736178D01*
Y731942D01*
X950797Y727789D01*
X952417Y723876D01*
X954770Y720355D01*
X957765Y717360D01*
X961286Y715007D01*
X965199Y713386D01*
X969353Y712560D01*
X973588D01*
X977742Y713386D01*
X981655Y715007D01*
X985176Y717360D01*
X988171Y720355D01*
X990524Y723876D01*
X992144Y727789D01*
X992971Y731942D01*
Y736178D01*
X992144Y740331D01*
X990524Y744244D01*
X988171Y747765D01*
X985176Y750760D01*
X981655Y753113D01*
X977742Y754734D01*
X973588Y755560D01*
X969353D01*
X965199Y754734D01*
X963031Y753836D01*
X954157Y762709D01*
X952277Y764151D01*
X950088Y765058D01*
X947738Y765368D01*
X901710D01*
X901563Y766487D01*
X900908Y768068D01*
X899866Y769426D01*
X898508Y770468D01*
X896927Y771123D01*
X895230Y771346D01*
D02*
G37*
G36*
X501960Y762570D02*
X498800D01*
X495748Y761752D01*
X493012Y760172D01*
X490778Y757938D01*
X489198Y755202D01*
X488380Y752150D01*
Y748990D01*
X489198Y745938D01*
X490778Y743202D01*
X493012Y740968D01*
X495748Y739388D01*
X498800Y738570D01*
X501960D01*
X505012Y739388D01*
X507748Y740968D01*
X509982Y743202D01*
X511562Y745938D01*
X512380Y748990D01*
Y752150D01*
X511562Y755202D01*
X509982Y757938D01*
X507748Y760172D01*
X505012Y761752D01*
X501960Y762570D01*
D02*
G37*
G36*
Y737170D02*
X498800D01*
X495748Y736352D01*
X493012Y734772D01*
X490778Y732538D01*
X490309Y731726D01*
X417830D01*
X416133Y731503D01*
X414552Y730848D01*
X413194Y729806D01*
X405439Y722050D01*
X403163Y722660D01*
X399477D01*
X395916Y721706D01*
X392724Y719863D01*
X390117Y717256D01*
X388274Y714064D01*
X387320Y710503D01*
Y706817D01*
X388274Y703256D01*
X390117Y700064D01*
X392724Y697457D01*
X395916Y695614D01*
X399477Y694660D01*
X403163D01*
X406724Y695614D01*
X409916Y697457D01*
X412523Y700064D01*
X414366Y703256D01*
X415320Y706817D01*
Y710503D01*
X414710Y712779D01*
X420546Y718614D01*
X490309D01*
X490778Y717802D01*
X493012Y715568D01*
X495748Y713988D01*
X498800Y713170D01*
X501960D01*
X505012Y713988D01*
X507748Y715568D01*
X509982Y717802D01*
X511562Y720538D01*
X512380Y723590D01*
Y726750D01*
X511562Y729802D01*
X509982Y732538D01*
X507748Y734772D01*
X505012Y736352D01*
X501960Y737170D01*
D02*
G37*
G36*
X751960Y711770D02*
X748800D01*
X745748Y710952D01*
X743012Y709372D01*
X740778Y707138D01*
X739198Y704402D01*
X738380Y701350D01*
Y698190D01*
X739198Y695138D01*
X740778Y692402D01*
X743012Y690168D01*
X745748Y688588D01*
X748800Y687770D01*
X751960D01*
X755012Y688588D01*
X757748Y690168D01*
X759982Y692402D01*
X761562Y695138D01*
X762380Y698190D01*
Y701350D01*
X761562Y704402D01*
X759982Y707138D01*
X757748Y709372D01*
X755012Y710952D01*
X751960Y711770D01*
D02*
G37*
G36*
X501960D02*
X498800D01*
X495748Y710952D01*
X493012Y709372D01*
X490778Y707138D01*
X489198Y704402D01*
X488380Y701350D01*
Y698190D01*
X489198Y695138D01*
X490778Y692402D01*
X493012Y690168D01*
X495748Y688588D01*
X498800Y687770D01*
X501960D01*
X505012Y688588D01*
X507748Y690168D01*
X509982Y692402D01*
X511562Y695138D01*
X512380Y698190D01*
Y701350D01*
X511562Y704402D01*
X509982Y707138D01*
X507748Y709372D01*
X505012Y710952D01*
X501960Y711770D01*
D02*
G37*
G36*
X1180895Y701320D02*
X1171145D01*
X1168828Y701015D01*
X1166669Y700121D01*
X1164815Y698698D01*
X1163393Y696844D01*
X1162498Y694685D01*
X1162193Y692368D01*
Y682618D01*
X1162498Y680302D01*
X1163393Y678142D01*
X1164815Y676289D01*
X1166669Y674866D01*
X1168828Y673972D01*
X1171145Y673667D01*
X1180895D01*
X1183212Y673972D01*
X1185371Y674866D01*
X1187225Y676289D01*
X1188647Y678142D01*
X1189541Y680302D01*
X1189847Y682618D01*
Y692368D01*
X1189541Y694685D01*
X1188647Y696844D01*
X1187225Y698698D01*
X1185371Y700121D01*
X1183212Y701015D01*
X1180895Y701320D01*
D02*
G37*
G36*
X751960Y686370D02*
X748800D01*
X745748Y685552D01*
X743012Y683972D01*
X740778Y681738D01*
X739198Y679002D01*
X738380Y675950D01*
Y672790D01*
X739198Y669738D01*
X740778Y667002D01*
X743012Y664768D01*
X745748Y663188D01*
X748800Y662370D01*
X751960D01*
X755012Y663188D01*
X757748Y664768D01*
X759982Y667002D01*
X761562Y669738D01*
X762380Y672790D01*
Y675950D01*
X761562Y679002D01*
X759982Y681738D01*
X757748Y683972D01*
X755012Y685552D01*
X751960Y686370D01*
D02*
G37*
G36*
X501960D02*
X498800D01*
X495748Y685552D01*
X493012Y683972D01*
X490778Y681738D01*
X489198Y679002D01*
X488380Y675950D01*
Y672790D01*
X489198Y669738D01*
X490778Y667002D01*
X493012Y664768D01*
X495748Y663188D01*
X498800Y662370D01*
X501960D01*
X505012Y663188D01*
X507748Y664768D01*
X509982Y667002D01*
X511562Y669738D01*
X512380Y672790D01*
Y675950D01*
X511562Y679002D01*
X509982Y681738D01*
X507748Y683972D01*
X505012Y685552D01*
X501960Y686370D01*
D02*
G37*
G36*
Y660970D02*
X498800D01*
X495748Y660152D01*
X493012Y658572D01*
X490778Y656338D01*
X490309Y655526D01*
X471170D01*
X469473Y655303D01*
X467892Y654648D01*
X466534Y653606D01*
X398726Y585797D01*
X397820Y586040D01*
X394660D01*
X391608Y585222D01*
X388872Y583642D01*
X386638Y581408D01*
X385058Y578672D01*
X384240Y575620D01*
Y572460D01*
X385058Y569408D01*
X386638Y566672D01*
X388872Y564438D01*
X391608Y562858D01*
X394660Y562040D01*
X397820D01*
X400872Y562858D01*
X403608Y564438D01*
X405842Y566672D01*
X407422Y569408D01*
X408240Y572460D01*
Y575620D01*
X407997Y576526D01*
X473886Y642414D01*
X490309D01*
X490778Y641602D01*
X493012Y639368D01*
X495748Y637788D01*
X498800Y636970D01*
X501960D01*
X505012Y637788D01*
X507748Y639368D01*
X509982Y641602D01*
X511562Y644338D01*
X512380Y647390D01*
Y650550D01*
X511562Y653602D01*
X509982Y656338D01*
X507748Y658572D01*
X505012Y660152D01*
X501960Y660970D01*
D02*
G37*
G36*
X751960D02*
X748800D01*
X745748Y660152D01*
X743012Y658572D01*
X740778Y656338D01*
X739198Y653602D01*
X738380Y650550D01*
Y647390D01*
X739198Y644338D01*
X740778Y641602D01*
X743012Y639368D01*
X745748Y637788D01*
X748800Y636970D01*
X751960D01*
X755012Y637788D01*
X755478Y638057D01*
X756779Y637518D01*
X758476Y637295D01*
X787348D01*
Y635101D01*
X787756Y633053D01*
X788916Y631316D01*
X790653Y630156D01*
X792701Y629748D01*
X800201D01*
X802249Y630156D01*
X803986Y631316D01*
X805146Y633053D01*
X805554Y635101D01*
Y647601D01*
X805146Y649649D01*
X803986Y651386D01*
X802249Y652546D01*
X800201Y652954D01*
X792701D01*
X790653Y652546D01*
X788916Y651386D01*
X788262Y650407D01*
X762380D01*
Y650550D01*
X761562Y653602D01*
X759982Y656338D01*
X757748Y658572D01*
X755012Y660152D01*
X751960Y660970D01*
D02*
G37*
G36*
X1098127Y704110D02*
X1093892D01*
X1089738Y703283D01*
X1085825Y701663D01*
X1082304Y699310D01*
X1079309Y696315D01*
X1076956Y692794D01*
X1075335Y688881D01*
X1074509Y684727D01*
Y680492D01*
X1075335Y676338D01*
X1076956Y672426D01*
X1079309Y668904D01*
X1082304Y665910D01*
X1085825Y663557D01*
X1089738Y661936D01*
X1093892Y661110D01*
X1098127D01*
X1102281Y661936D01*
X1103387Y662394D01*
X1135507Y630275D01*
X1135507Y630275D01*
X1137387Y628832D01*
X1139576Y627925D01*
X1141926Y627616D01*
X1141926Y627616D01*
X1165652D01*
X1167577Y625691D01*
X1170713Y623880D01*
X1174210Y622943D01*
X1177830D01*
X1181327Y623880D01*
X1184463Y625691D01*
X1187023Y628251D01*
X1188833Y631386D01*
X1189770Y634883D01*
Y638503D01*
X1188833Y642001D01*
X1187023Y645136D01*
X1184463Y647696D01*
X1181327Y649506D01*
X1177830Y650443D01*
X1174210D01*
X1170713Y649506D01*
X1167577Y647696D01*
X1165652Y645771D01*
X1145686D01*
X1116225Y675232D01*
X1116683Y676338D01*
X1117509Y680492D01*
Y684727D01*
X1116683Y688881D01*
X1115062Y692794D01*
X1112709Y696315D01*
X1109715Y699310D01*
X1106193Y701663D01*
X1102281Y703283D01*
X1098127Y704110D01*
D02*
G37*
G36*
X857873Y653152D02*
X845373D01*
X843325Y652744D01*
X841588Y651584D01*
X840428Y649847D01*
X840020Y647799D01*
Y640299D01*
X840428Y638251D01*
X841588Y636514D01*
X843325Y635354D01*
X845340Y634953D01*
Y630084D01*
X844969Y630010D01*
X843315Y628905D01*
X842210Y627251D01*
X841822Y625300D01*
Y619300D01*
X842210Y617349D01*
X843315Y615695D01*
X844969Y614590D01*
X846920Y614202D01*
X857420D01*
X859371Y614590D01*
X861025Y615695D01*
X862130Y617349D01*
X862518Y619300D01*
Y625300D01*
X862130Y627251D01*
X861025Y628905D01*
X859371Y630010D01*
X858453Y630193D01*
Y635061D01*
X859921Y635354D01*
X861658Y636514D01*
X862818Y638251D01*
X863226Y640299D01*
Y647799D01*
X862818Y649847D01*
X861658Y651584D01*
X859921Y652744D01*
X857873Y653152D01*
D02*
G37*
G36*
X501960Y635570D02*
X498800D01*
X495748Y634752D01*
X493012Y633172D01*
X490778Y630938D01*
X489198Y628202D01*
X488380Y625150D01*
Y621990D01*
X489198Y618938D01*
X490778Y616202D01*
X493012Y613968D01*
X495748Y612388D01*
X498800Y611570D01*
X501960D01*
X505012Y612388D01*
X507748Y613968D01*
X509982Y616202D01*
X511562Y618938D01*
X512380Y621990D01*
Y625150D01*
X511562Y628202D01*
X509982Y630938D01*
X507748Y633172D01*
X505012Y634752D01*
X501960Y635570D01*
D02*
G37*
G36*
X820201Y677084D02*
X812701D01*
X810653Y676676D01*
X808916Y675516D01*
X807756Y673779D01*
X807348Y671731D01*
Y659231D01*
X807756Y657183D01*
X808916Y655446D01*
X809895Y654792D01*
Y652040D01*
X808916Y651386D01*
X807756Y649649D01*
X807348Y647601D01*
Y635101D01*
X807756Y633053D01*
X808916Y631316D01*
X809895Y630662D01*
Y620099D01*
X810118Y618402D01*
X810127Y618381D01*
Y615080D01*
X810496Y613227D01*
X811545Y611656D01*
X813117Y610606D01*
X814970Y610237D01*
X819470D01*
X821323Y610606D01*
X822895Y611656D01*
X823944Y613227D01*
X824313Y615080D01*
Y621580D01*
X823944Y623433D01*
X823007Y624836D01*
Y630662D01*
X823986Y631316D01*
X825146Y633053D01*
X825554Y635101D01*
Y647601D01*
X825146Y649649D01*
X823986Y651386D01*
X823007Y652040D01*
Y654792D01*
X823986Y655446D01*
X825146Y657183D01*
X825554Y659231D01*
Y671731D01*
X825146Y673779D01*
X823986Y675516D01*
X822250Y676676D01*
X820201Y677084D01*
D02*
G37*
G36*
X899040Y621166D02*
X884040D01*
X882343Y620943D01*
X880762Y620288D01*
X879404Y619246D01*
X878362Y617888D01*
X877707Y616307D01*
X877484Y614610D01*
Y608536D01*
X861057D01*
X861025Y608585D01*
X859371Y609690D01*
X857420Y610078D01*
X846920D01*
X844969Y609690D01*
X843315Y608585D01*
X842210Y606931D01*
X841822Y604980D01*
Y604886D01*
X813474D01*
X813394Y605005D01*
X811823Y606054D01*
X809970Y606423D01*
X805470D01*
X803617Y606054D01*
X802046Y605005D01*
X800996Y603433D01*
X800627Y601580D01*
Y595080D01*
X800996Y593227D01*
X802046Y591656D01*
X803617Y590606D01*
X805470Y590237D01*
X809970D01*
X811823Y590606D01*
X813394Y591656D01*
X813474Y591774D01*
X846270D01*
X847967Y591997D01*
X849548Y592652D01*
X850906Y593694D01*
X851094Y593882D01*
X857420D01*
X859371Y594270D01*
X861025Y595375D01*
X861057Y595424D01*
X877910D01*
X878362Y594332D01*
X879404Y592974D01*
X880762Y591932D01*
X882343Y591277D01*
X884040Y591054D01*
X893758D01*
X928621Y556191D01*
X930501Y554748D01*
X932691Y553842D01*
X935040Y553532D01*
X954499D01*
X954957Y552426D01*
X957310Y548905D01*
X960305Y545910D01*
X963826Y543557D01*
X967739Y541936D01*
X971893Y541110D01*
X976128D01*
X980282Y541936D01*
X984195Y543557D01*
X987716Y545910D01*
X990711Y548905D01*
X993064Y552426D01*
X994684Y556339D01*
X995510Y560492D01*
Y564728D01*
X994684Y568881D01*
X993064Y572794D01*
X990711Y576315D01*
X987716Y579310D01*
X984195Y581663D01*
X980282Y583284D01*
X976128Y584110D01*
X971893D01*
X967739Y583284D01*
X963826Y581663D01*
X960305Y579310D01*
X957310Y576315D01*
X954957Y572794D01*
X954499Y571688D01*
X938800D01*
X905596Y604892D01*
Y614610D01*
X905373Y616307D01*
X904718Y617888D01*
X903676Y619246D01*
X902318Y620288D01*
X900737Y620943D01*
X899040Y621166D01*
D02*
G37*
G36*
X956128Y644110D02*
X951893D01*
X947739Y643284D01*
X943827Y641663D01*
X940305Y639310D01*
X937310Y636315D01*
X934958Y632794D01*
X933337Y628881D01*
X932511Y624728D01*
Y620492D01*
X933337Y616339D01*
X934958Y612426D01*
X937310Y608904D01*
X940305Y605910D01*
X943827Y603557D01*
X947739Y601936D01*
X951893Y601110D01*
X956128D01*
X960282Y601936D01*
X964195Y603557D01*
X967716Y605910D01*
X970711Y608904D01*
X973064Y612426D01*
X974684Y616339D01*
X975510Y620492D01*
Y624728D01*
X974684Y628881D01*
X973064Y632794D01*
X970711Y636315D01*
X967716Y639310D01*
X964195Y641663D01*
X960282Y643284D01*
X956128Y644110D01*
D02*
G37*
G36*
X751960Y610170D02*
X748800D01*
X745748Y609352D01*
X743012Y607772D01*
X740778Y605538D01*
X739198Y602802D01*
X738380Y599750D01*
Y596590D01*
X739198Y593538D01*
X740778Y590802D01*
X743012Y588568D01*
X745748Y586988D01*
X748800Y586170D01*
X751960D01*
X755012Y586988D01*
X757748Y588568D01*
X759982Y590802D01*
X761562Y593538D01*
X762380Y596590D01*
Y599750D01*
X761562Y602802D01*
X759982Y605538D01*
X757748Y607772D01*
X755012Y609352D01*
X751960Y610170D01*
D02*
G37*
G36*
X1177830Y599643D02*
X1174210D01*
X1170713Y598706D01*
X1167577Y596896D01*
X1165652Y594971D01*
X1122323D01*
X1119974Y594662D01*
X1117785Y593755D01*
X1115904Y592312D01*
X1115904Y592312D01*
X1105530Y581938D01*
X1102281Y583284D01*
X1098127Y584110D01*
X1093892D01*
X1089738Y583284D01*
X1085825Y581663D01*
X1082304Y579310D01*
X1079309Y576315D01*
X1076956Y572794D01*
X1075335Y568881D01*
X1074509Y564728D01*
Y560492D01*
X1075335Y556339D01*
X1076956Y552426D01*
X1079309Y548905D01*
X1082304Y545910D01*
X1085825Y543557D01*
X1089738Y541936D01*
X1093892Y541110D01*
X1098127D01*
X1102281Y541936D01*
X1106193Y543557D01*
X1109715Y545910D01*
X1112709Y548905D01*
X1115062Y552426D01*
X1116683Y556339D01*
X1117509Y560492D01*
Y564728D01*
X1116926Y567659D01*
X1126083Y576816D01*
X1165652D01*
X1167577Y574891D01*
X1170713Y573080D01*
X1174210Y572143D01*
X1177830D01*
X1181327Y573080D01*
X1184463Y574891D01*
X1187023Y577451D01*
X1188833Y580586D01*
X1189770Y584083D01*
Y587704D01*
X1188833Y591201D01*
X1187023Y594336D01*
X1184463Y596896D01*
X1181327Y598706D01*
X1177830Y599643D01*
D02*
G37*
G36*
X751960Y584770D02*
X748800D01*
X745748Y583952D01*
X743012Y582372D01*
X740778Y580138D01*
X739198Y577402D01*
X738380Y574350D01*
Y571190D01*
X739198Y568138D01*
X740778Y565402D01*
X743012Y563168D01*
X745748Y561588D01*
X748800Y560770D01*
X751960D01*
X755012Y561588D01*
X757748Y563168D01*
X759982Y565402D01*
X761562Y568138D01*
X762380Y571190D01*
Y574350D01*
X761562Y577402D01*
X759982Y580138D01*
X757748Y582372D01*
X755012Y583952D01*
X751960Y584770D01*
D02*
G37*
G36*
Y559370D02*
X748800D01*
X745748Y558552D01*
X743012Y556972D01*
X740778Y554738D01*
X739198Y552002D01*
X738380Y548950D01*
Y545790D01*
X739198Y542738D01*
X740778Y540002D01*
X743012Y537768D01*
X745748Y536188D01*
X748800Y535370D01*
X751960D01*
X755012Y536188D01*
X757748Y537768D01*
X759982Y540002D01*
X761562Y542738D01*
X762380Y545790D01*
Y548950D01*
X761562Y552002D01*
X759982Y554738D01*
X757748Y556972D01*
X755012Y558552D01*
X751960Y559370D01*
D02*
G37*
G36*
Y533970D02*
X748800D01*
X745748Y533152D01*
X743012Y531572D01*
X740778Y529338D01*
X739198Y526602D01*
X738380Y523550D01*
Y520390D01*
X739198Y517338D01*
X740778Y514602D01*
X743012Y512368D01*
X745748Y510788D01*
X748800Y509970D01*
X751960D01*
X755012Y510788D01*
X757748Y512368D01*
X759982Y514602D01*
X761562Y517338D01*
X762380Y520390D01*
Y523550D01*
X761562Y526602D01*
X759982Y529338D01*
X757748Y531572D01*
X755012Y533152D01*
X751960Y533970D01*
D02*
G37*
G36*
X501960D02*
X498800D01*
X495748Y533152D01*
X493012Y531572D01*
X490778Y529338D01*
X489198Y526602D01*
X488380Y523550D01*
Y520390D01*
X489198Y517338D01*
X490778Y514602D01*
X493012Y512368D01*
X495748Y510788D01*
X498800Y509970D01*
X501960D01*
X505012Y510788D01*
X507748Y512368D01*
X509982Y514602D01*
X511562Y517338D01*
X512380Y520390D01*
Y523550D01*
X511562Y526602D01*
X509982Y529338D01*
X507748Y531572D01*
X505012Y533152D01*
X501960Y533970D01*
D02*
G37*
G36*
X1180895Y526907D02*
X1171145D01*
X1168828Y526601D01*
X1166669Y525707D01*
X1164815Y524285D01*
X1163393Y522431D01*
X1162498Y520272D01*
X1162193Y517955D01*
Y508205D01*
X1162498Y505888D01*
X1163393Y503729D01*
X1164815Y501875D01*
X1166669Y500453D01*
X1168828Y499558D01*
X1171145Y499253D01*
X1180895D01*
X1183212Y499558D01*
X1185371Y500453D01*
X1187225Y501875D01*
X1188647Y503729D01*
X1189541Y505888D01*
X1189847Y508205D01*
Y517955D01*
X1189541Y520272D01*
X1188647Y522431D01*
X1187225Y524285D01*
X1185371Y525707D01*
X1183212Y526601D01*
X1180895Y526907D01*
D02*
G37*
G36*
X751960Y508570D02*
X748800D01*
X745748Y507752D01*
X743012Y506172D01*
X740778Y503938D01*
X739198Y501202D01*
X738380Y498150D01*
Y494990D01*
X739198Y491938D01*
X740778Y489202D01*
X743012Y486968D01*
X745748Y485388D01*
X748800Y484570D01*
X751960D01*
X755012Y485388D01*
X757748Y486968D01*
X759982Y489202D01*
X761562Y491938D01*
X762380Y494990D01*
Y498150D01*
X761562Y501202D01*
X759982Y503938D01*
X757748Y506172D01*
X755012Y507752D01*
X751960Y508570D01*
D02*
G37*
G36*
X501960D02*
X498800D01*
X495748Y507752D01*
X493012Y506172D01*
X490778Y503938D01*
X489198Y501202D01*
X488380Y498150D01*
Y494990D01*
X489198Y491938D01*
X490778Y489202D01*
X493012Y486968D01*
X495748Y485388D01*
X498800Y484570D01*
X501960D01*
X505012Y485388D01*
X507748Y486968D01*
X509982Y489202D01*
X511562Y491938D01*
X512380Y494990D01*
Y498150D01*
X511562Y501202D01*
X509982Y503938D01*
X507748Y506172D01*
X505012Y507752D01*
X501960Y508570D01*
D02*
G37*
G36*
X751960Y635570D02*
X748800D01*
X745748Y634752D01*
X743012Y633172D01*
X740778Y630938D01*
X739198Y628202D01*
X738380Y625150D01*
Y621990D01*
X739198Y618938D01*
X740778Y616202D01*
X743012Y613968D01*
X745748Y612388D01*
X748800Y611570D01*
X751960D01*
X755012Y612388D01*
X757748Y613968D01*
X759141Y615361D01*
X760914Y615384D01*
X775764Y600534D01*
Y490342D01*
X775987Y488645D01*
X776642Y487064D01*
X777684Y485706D01*
X787348Y476042D01*
Y467461D01*
X787756Y465413D01*
X788916Y463676D01*
X790653Y462516D01*
X792701Y462108D01*
X800201D01*
X802249Y462516D01*
X803986Y463676D01*
X805146Y465413D01*
X805554Y467461D01*
Y479961D01*
X805146Y482009D01*
X803986Y483746D01*
X802249Y484906D01*
X800201Y485314D01*
X796620D01*
X788876Y493058D01*
Y603250D01*
X788653Y604947D01*
X787998Y606528D01*
X786956Y607886D01*
X766786Y628056D01*
X765428Y629098D01*
X763847Y629753D01*
X762150Y629976D01*
X760538D01*
X759982Y630938D01*
X757748Y633172D01*
X755012Y634752D01*
X751960Y635570D01*
D02*
G37*
G36*
Y483170D02*
X748800D01*
X745748Y482352D01*
X743012Y480772D01*
X740778Y478538D01*
X739198Y475802D01*
X738380Y472750D01*
Y469590D01*
X739198Y466538D01*
X740778Y463802D01*
X743012Y461568D01*
X745748Y459988D01*
X748800Y459170D01*
X751960D01*
X755012Y459988D01*
X757748Y461568D01*
X759982Y463802D01*
X761562Y466538D01*
X762380Y469590D01*
Y472750D01*
X761562Y475802D01*
X759982Y478538D01*
X757748Y480772D01*
X755012Y482352D01*
X751960Y483170D01*
D02*
G37*
G36*
X501960D02*
X498800D01*
X495748Y482352D01*
X493012Y480772D01*
X490778Y478538D01*
X489198Y475802D01*
X488380Y472750D01*
Y469590D01*
X489198Y466538D01*
X490778Y463802D01*
X493012Y461568D01*
X495748Y459988D01*
X498800Y459170D01*
X501960D01*
X505012Y459988D01*
X507748Y461568D01*
X509982Y463802D01*
X511562Y466538D01*
X512380Y469590D01*
Y472750D01*
X511562Y475802D01*
X509982Y478538D01*
X507748Y480772D01*
X505012Y482352D01*
X501960Y483170D01*
D02*
G37*
G36*
X1098127Y531390D02*
X1093892D01*
X1089738Y530564D01*
X1085825Y528943D01*
X1082304Y526590D01*
X1079309Y523595D01*
X1076956Y520074D01*
X1075335Y516161D01*
X1074509Y512007D01*
Y507772D01*
X1075335Y503618D01*
X1076956Y499706D01*
X1079309Y496184D01*
X1082304Y493190D01*
X1085825Y490837D01*
X1089738Y489216D01*
X1093892Y488390D01*
X1098127D01*
X1102281Y489216D01*
X1103387Y489674D01*
X1137200Y455861D01*
X1137200Y455861D01*
X1139080Y454418D01*
X1141270Y453512D01*
X1143619Y453202D01*
X1165652D01*
X1167577Y451277D01*
X1170713Y449467D01*
X1174210Y448530D01*
X1177830D01*
X1181327Y449467D01*
X1184463Y451277D01*
X1187023Y453837D01*
X1188833Y456973D01*
X1189770Y460470D01*
Y464090D01*
X1188833Y467587D01*
X1187023Y470723D01*
X1184463Y473283D01*
X1181327Y475093D01*
X1177830Y476030D01*
X1174210D01*
X1170713Y475093D01*
X1167577Y473283D01*
X1165652Y471358D01*
X1147379D01*
X1116225Y502512D01*
X1116683Y503618D01*
X1117509Y507772D01*
Y512007D01*
X1116683Y516161D01*
X1115062Y520074D01*
X1112709Y523595D01*
X1109715Y526590D01*
X1106193Y528943D01*
X1102281Y530564D01*
X1098127Y531390D01*
D02*
G37*
G36*
X751960Y457770D02*
X748800D01*
X745748Y456952D01*
X743012Y455372D01*
X740778Y453138D01*
X739198Y450402D01*
X738380Y447350D01*
Y444190D01*
X739198Y441138D01*
X740778Y438402D01*
X743012Y436168D01*
X745748Y434588D01*
X748800Y433770D01*
X751960D01*
X755012Y434588D01*
X757748Y436168D01*
X759982Y438402D01*
X761562Y441138D01*
X762380Y444190D01*
Y447350D01*
X761562Y450402D01*
X759982Y453138D01*
X757748Y455372D01*
X755012Y456952D01*
X751960Y457770D01*
D02*
G37*
G36*
X501960D02*
X498800D01*
X495748Y456952D01*
X493012Y455372D01*
X490778Y453138D01*
X489198Y450402D01*
X488380Y447350D01*
Y444190D01*
X489198Y441138D01*
X490778Y438402D01*
X493012Y436168D01*
X495748Y434588D01*
X498800Y433770D01*
X501960D01*
X505012Y434588D01*
X507748Y436168D01*
X509982Y438402D01*
X511562Y441138D01*
X512380Y444190D01*
Y447350D01*
X511562Y450402D01*
X509982Y453138D01*
X507748Y455372D01*
X505012Y456952D01*
X501960Y457770D01*
D02*
G37*
G36*
X857151Y472812D02*
X844651D01*
X842603Y472404D01*
X840866Y471244D01*
X839706Y469507D01*
X839298Y467459D01*
Y459959D01*
X839706Y457910D01*
X840866Y456174D01*
X842603Y455014D01*
X844344Y454667D01*
Y444718D01*
X843699Y444590D01*
X842045Y443485D01*
X840940Y441831D01*
X840552Y439880D01*
Y433880D01*
X840940Y431929D01*
X842045Y430275D01*
X843699Y429170D01*
X845650Y428782D01*
X856150D01*
X858101Y429170D01*
X859755Y430275D01*
X860860Y431929D01*
X861248Y433880D01*
Y439880D01*
X860860Y441831D01*
X859755Y443485D01*
X858101Y444590D01*
X857457Y444718D01*
Y454667D01*
X859199Y455014D01*
X860936Y456174D01*
X862096Y457910D01*
X862504Y459959D01*
Y467459D01*
X862096Y469507D01*
X860936Y471244D01*
X859199Y472404D01*
X857151Y472812D01*
D02*
G37*
G36*
X820201Y485314D02*
X812701D01*
X810653Y484906D01*
X808916Y483746D01*
X807756Y482009D01*
X807348Y479961D01*
Y467461D01*
X807756Y465413D01*
X808916Y463676D01*
X809895Y463022D01*
Y457730D01*
X808916Y457076D01*
X807756Y455339D01*
X807348Y453291D01*
Y440791D01*
X807756Y438743D01*
X808916Y437006D01*
X809644Y436519D01*
Y429750D01*
X809226Y429123D01*
X808857Y427270D01*
Y420770D01*
X809226Y418917D01*
X810275Y417346D01*
X811847Y416296D01*
X813700Y415927D01*
X818200D01*
X820053Y416296D01*
X821625Y417346D01*
X822674Y418917D01*
X823043Y420770D01*
Y427270D01*
X822757Y428710D01*
Y436185D01*
X823986Y437006D01*
X825146Y438743D01*
X825554Y440791D01*
Y453291D01*
X825146Y455339D01*
X823986Y457076D01*
X823007Y457730D01*
Y463022D01*
X823986Y463676D01*
X825146Y465413D01*
X825554Y467461D01*
Y479961D01*
X825146Y482009D01*
X823986Y483746D01*
X822250Y484906D01*
X820201Y485314D01*
D02*
G37*
G36*
X751960Y432370D02*
X748800D01*
X745748Y431552D01*
X743012Y429972D01*
X740778Y427738D01*
X739198Y425002D01*
X738380Y421950D01*
Y418790D01*
X739198Y415738D01*
X740778Y413002D01*
X743012Y410768D01*
X745748Y409188D01*
X748800Y408370D01*
X751960D01*
X755012Y409188D01*
X757748Y410768D01*
X759982Y413002D01*
X761562Y415738D01*
X762380Y418790D01*
Y421950D01*
X761562Y425002D01*
X759982Y427738D01*
X757748Y429972D01*
X755012Y431552D01*
X751960Y432370D01*
D02*
G37*
G36*
X501960Y406970D02*
X498800D01*
X495748Y406152D01*
X493012Y404572D01*
X490778Y402338D01*
X489198Y399602D01*
X488380Y396550D01*
Y393390D01*
X489198Y390338D01*
X490778Y387602D01*
X493012Y385368D01*
X495748Y383788D01*
X498800Y382970D01*
X501960D01*
X505012Y383788D01*
X507748Y385368D01*
X509982Y387602D01*
X511562Y390338D01*
X512380Y393390D01*
Y396550D01*
X511562Y399602D01*
X509982Y402338D01*
X507748Y404572D01*
X505012Y406152D01*
X501960Y406970D01*
D02*
G37*
%LPD*%
G36*
X820420Y1043940D02*
Y1027430D01*
X814070Y1021080D01*
X770890Y1021080D01*
X768350Y1018540D01*
Y941070D01*
X765810Y938530D01*
X755650D01*
X751840Y942340D01*
Y1022350D01*
Y1024890D01*
X749300Y1027430D01*
Y1042670D01*
Y1045210D01*
X753110Y1049020D01*
X815340D01*
X820420Y1043940D01*
D02*
G37*
G36*
X1056640Y1002030D02*
Y523240D01*
X1023620Y490220D01*
X961390D01*
X953770Y497840D01*
Y523784D01*
X963507Y532130D01*
X998220D01*
X1010920Y547370D01*
Y654050D01*
X1003300Y661670D01*
X965200D01*
X956310Y670560D01*
Y694690D01*
X963930Y702310D01*
X1004570D01*
X1010920Y708660D01*
Y821690D01*
X999490Y833120D01*
X961390D01*
X952500Y842010D01*
Y866140D01*
X960120Y873760D01*
X1002030D01*
X1010920Y882650D01*
Y982980D01*
X986790Y1007110D01*
X949960D01*
X939800Y1017270D01*
X939800Y1037590D01*
X951230Y1049020D01*
X1009650Y1049020D01*
X1056640Y1002030D01*
D02*
G37*
G36*
X524510Y989330D02*
Y960120D01*
X530860Y953770D01*
X546100D01*
X549910Y949960D01*
Y928370D01*
X547370Y925830D01*
X525780D01*
X521970Y929640D01*
Y944880D01*
X510540Y956310D01*
Y988060D01*
X513080Y990600D01*
X523240D01*
X524510Y989330D01*
D02*
G37*
G36*
X554990Y1037590D02*
Y1017270D01*
X563880Y1008380D01*
X601980D01*
X605790Y1004570D01*
Y909320D01*
X605078Y908608D01*
X603613Y894080D01*
X599440D01*
X595947Y908050D01*
X593090D01*
X591820Y909320D01*
Y966470D01*
X588010Y970280D01*
X537210D01*
X533400Y974090D01*
Y1003300D01*
X523240Y1013460D01*
Y1038860D01*
X525780Y1041400D01*
X551180D01*
X554990Y1037590D01*
D02*
G37*
G36*
X612140Y795020D02*
Y781050D01*
X609600Y778510D01*
X570230D01*
X563880Y772160D01*
X542290D01*
X539750Y774700D01*
Y791210D01*
X543560Y795020D01*
Y795020D01*
X544034Y796290D01*
X610870D01*
X612140Y795020D01*
D02*
G37*
D10*
X809650Y855030D02*
D03*
X819150Y875030D02*
D03*
X800150D02*
D03*
X806450Y404020D02*
D03*
X815950Y424020D02*
D03*
X796950D02*
D03*
X794410Y772000D02*
D03*
X813410D02*
D03*
X803910Y752000D02*
D03*
X798220Y618330D02*
D03*
X817220D02*
D03*
X807720Y598330D02*
D03*
D11*
X854710Y881380D02*
D03*
Y901700D02*
D03*
X853440Y988060D02*
D03*
Y1008380D02*
D03*
X652780Y1027430D02*
D03*
Y1047750D02*
D03*
X848360Y750570D02*
D03*
Y770890D02*
D03*
X852170Y622300D02*
D03*
Y601980D02*
D03*
X850900Y436880D02*
D03*
Y416560D02*
D03*
D12*
X853441Y944719D02*
D03*
Y924719D02*
D03*
X807719Y1028541D02*
D03*
Y1008541D02*
D03*
X652781Y1001869D02*
D03*
Y981869D02*
D03*
X848909Y791369D02*
D03*
Y811369D02*
D03*
X851623Y644049D02*
D03*
Y664049D02*
D03*
X850901Y463709D02*
D03*
Y483709D02*
D03*
D13*
X899160Y894400D02*
D03*
Y934400D02*
D03*
X552450Y784540D02*
D03*
Y744540D02*
D03*
X887730Y756290D02*
D03*
Y796290D02*
D03*
X891540Y606110D02*
D03*
Y646110D02*
D03*
X890270Y438150D02*
D03*
Y478150D02*
D03*
D14*
X821529Y928369D02*
D03*
X801529D02*
D03*
X801531Y897891D02*
D03*
X821531D02*
D03*
X739301Y1003301D02*
D03*
X759301D02*
D03*
X604680Y787400D02*
D03*
X624680D02*
D03*
X816451Y473711D02*
D03*
X796451D02*
D03*
X816451Y447041D02*
D03*
X796451D02*
D03*
X812641Y820421D02*
D03*
X792641D02*
D03*
X812641Y795021D02*
D03*
X792641D02*
D03*
X816451Y641351D02*
D03*
X796451D02*
D03*
X816451Y665481D02*
D03*
X796451D02*
D03*
D15*
X739300Y948690D02*
D03*
X759300D02*
D03*
X739300Y976630D02*
D03*
X759300D02*
D03*
X618330Y918210D02*
D03*
X598330D02*
D03*
Y951230D02*
D03*
X618330D02*
D03*
D16*
X761680Y1036320D02*
D03*
X721680D02*
D03*
D17*
X589020Y881710D02*
D03*
X601720D02*
D03*
X614420D02*
D03*
X627120D02*
D03*
Y827710D02*
D03*
X614420D02*
D03*
X601720D02*
D03*
X589020D02*
D03*
D18*
X551180Y869790D02*
D03*
Y849790D02*
D03*
X576580Y440370D02*
D03*
Y420370D02*
D03*
X548640Y440370D02*
D03*
Y420370D02*
D03*
D19*
X595630Y1034190D02*
D03*
Y990190D02*
D03*
D20*
X491350Y1027430D02*
D03*
X537350D02*
D03*
X490080Y938530D02*
D03*
X536080D02*
D03*
D21*
X517320Y981710D02*
D03*
X539320D02*
D03*
D22*
X419100Y485140D02*
Y525780D01*
X396240Y548640D02*
X419100Y525780D01*
X396240Y548640D02*
Y549998D01*
X379240Y566998D02*
X396240Y549998D01*
X379240Y581082D02*
X381000Y582842D01*
Y591768D02*
X401320Y612089D01*
X381000Y582842D02*
Y591768D01*
X379240Y566998D02*
Y581082D01*
X384810Y734060D02*
X427990Y777240D01*
X382320Y716530D02*
X384810Y719020D01*
X382320Y657935D02*
X401320Y638935D01*
Y612089D02*
Y638935D01*
X382320Y657935D02*
Y716530D01*
X384810Y719020D02*
Y734060D01*
X911860Y948100D02*
Y994410D01*
X1087120Y1029319D02*
Y1029320D01*
Y1029319D02*
X1130919Y985520D01*
X1176020D01*
X1150620Y909320D02*
X1176020Y934720D01*
X1087120Y909320D02*
X1150620D01*
X1093470Y854059D02*
Y854060D01*
Y854059D02*
X1136422Y811107D01*
X1176020D01*
X1119716Y760307D02*
X1176020D01*
X1093470Y734061D02*
X1119716Y760307D01*
X1093470Y734060D02*
Y734061D01*
X1096010Y682609D02*
Y682610D01*
Y682609D02*
X1141926Y636693D01*
X1176020D01*
X1122323Y585893D02*
X1176020D01*
X1099040Y562610D02*
X1122323Y585893D01*
X1096010Y562610D02*
X1099040D01*
X1096010Y509889D02*
Y509890D01*
Y509889D02*
X1143619Y462280D01*
X1176020D01*
X1124017Y411480D02*
X1176020D01*
X1102427Y389890D02*
X1124017Y411480D01*
X1096010Y389890D02*
X1102427D01*
X500380Y547370D02*
X548640Y499110D01*
Y440370D02*
Y499110D01*
Y440370D02*
X576580D01*
X396240Y462280D02*
X419100Y485140D01*
X721680Y981340D02*
Y1036320D01*
X694690Y859910D02*
Y954350D01*
X721680Y981340D01*
X938530Y389890D02*
X974010D01*
X896270Y432150D02*
X938530Y389890D01*
X895270Y432150D02*
X896270D01*
X890270Y437150D02*
X895270Y432150D01*
X890270Y437150D02*
Y438150D01*
Y478150D02*
X942271D01*
X974010Y509889D01*
Y509890D01*
X935040Y562610D02*
X974010D01*
X897540Y600110D02*
X935040Y562610D01*
X896540Y600110D02*
X897540D01*
X891540Y605110D02*
X896540Y600110D01*
X891540Y647110D02*
X927040Y682610D01*
X974010D01*
X974010Y682610D01*
X969968Y734060D02*
X971470D01*
X947738Y756290D02*
X969968Y734060D01*
X887730Y756290D02*
X947738D01*
X789940Y966470D02*
X829190D01*
X772647Y949177D02*
X789940Y966470D01*
X829190D02*
X850941Y944719D01*
X759787Y949177D02*
X772647D01*
X759300Y948690D02*
X759787Y949177D01*
X850941Y944719D02*
X853441D01*
X889841D01*
X942964Y1025514D02*
X961314D01*
X965120Y1029320D01*
X911860Y994410D02*
X942964Y1025514D01*
X899160Y935400D02*
X911860Y948100D01*
X899160Y934400D02*
Y935400D01*
X887730Y797290D02*
X939716Y849276D01*
X966686D01*
X971470Y854060D01*
X889841Y944719D02*
X899160Y935400D01*
X958355Y909320D02*
X965120D01*
X943436Y894400D02*
X958355Y909320D01*
X899160Y894400D02*
X943436D01*
X624680Y789900D02*
X694690Y859910D01*
X624680Y787400D02*
Y789900D01*
X500380Y420370D02*
X548640D01*
X576580D01*
X599440D01*
X624680Y445610D01*
Y787400D01*
X517320Y981710D02*
Y985210D01*
X487115Y935565D02*
X490080Y938530D01*
X420795Y935565D02*
X487115D01*
X417830Y932600D02*
X420795Y935565D01*
X369830Y840480D02*
Y962600D01*
Y840480D02*
X396240Y814070D01*
X397388Y812922D01*
X412628D01*
X427990Y797560D01*
Y777240D02*
Y797560D01*
X395790Y788220D02*
X396240Y788670D01*
X364490Y770890D02*
X381820Y788220D01*
X395790D01*
X364490Y554990D02*
Y770890D01*
Y554990D02*
X396240Y523240D01*
X363220Y490220D02*
X396240Y523240D01*
X363220Y444500D02*
Y490220D01*
Y444500D02*
X396240Y411480D01*
X444553D01*
X453443Y420370D01*
X500380D01*
D23*
X663492Y983532D02*
X708909Y1028949D01*
X715309D02*
X722680Y1036320D01*
X652781Y981869D02*
X654444Y983532D01*
X708909Y1028949D02*
X715309D01*
X654444Y983532D02*
X663492D01*
X819150Y875030D02*
Y905352D01*
X804029Y920473D02*
X819150Y905352D01*
X762150Y623420D02*
X782320Y603250D01*
Y490342D02*
Y603250D01*
X750380Y623570D02*
X750530Y623420D01*
X762150D01*
X782320Y490342D02*
X796451Y476211D01*
X817220Y618330D02*
Y619330D01*
X816451Y620099D02*
Y641351D01*
Y620099D02*
X817220Y619330D01*
X816451Y641351D02*
Y665481D01*
X796451Y473711D02*
Y476211D01*
X850900Y436880D02*
X850900Y436880D01*
Y463708D01*
X850901Y463709D01*
X884711Y483709D02*
X890270Y478150D01*
X850901Y483709D02*
X884711D01*
X869680Y416560D02*
X890270Y437150D01*
X850900Y416560D02*
X869680D01*
X848650D02*
X850900D01*
X836110Y404020D02*
X848650Y416560D01*
X806450Y404020D02*
X836110D01*
X816200Y446791D02*
X816451Y447041D01*
X816200Y424271D02*
Y446791D01*
X815950Y424020D02*
X816200Y424271D01*
X816451Y447041D02*
Y473711D01*
X849920Y601980D02*
X852170D01*
X846270Y598330D02*
X849920Y601980D01*
X807720Y598330D02*
X846270D01*
X750380Y648970D02*
X753357D01*
X793951Y643851D02*
X796451Y641351D01*
X753357Y648970D02*
X758476Y643851D01*
X793951D01*
X851623Y644049D02*
X851897Y643775D01*
Y622574D02*
Y643775D01*
Y622574D02*
X852170Y622300D01*
X887410Y601980D02*
X891540Y606110D01*
X852170Y601980D02*
X887410D01*
X891540Y646110D02*
Y647110D01*
X874601Y664049D02*
X891540Y647110D01*
X851623Y664049D02*
X874601D01*
X971470Y734060D02*
Y734061D01*
X750380Y750570D02*
X750690D01*
X792641Y792521D01*
Y795021D01*
X868280Y756290D02*
X887730D01*
X862560Y750570D02*
X868280Y756290D01*
X848360Y750570D02*
X862560D01*
X847645Y751285D02*
X848360Y750570D01*
X804410Y751285D02*
X847645D01*
X803910Y751785D02*
X804410Y751285D01*
X803910Y751785D02*
Y752000D01*
X848360Y770890D02*
X848634Y771164D01*
Y791095D01*
X848909Y791369D01*
X873651Y811369D02*
X887730Y797290D01*
X848909Y811369D02*
X873651D01*
X745490Y925830D02*
X768350D01*
X788509Y945989D01*
X811691D01*
X739300Y932020D02*
X745490Y925830D01*
X811691Y945989D02*
X820259Y937421D01*
Y933449D02*
Y937421D01*
X801010Y897370D02*
X801531Y897891D01*
X791960Y897370D02*
X801010D01*
X781050Y886460D02*
X791960Y897370D01*
X781050Y873760D02*
Y886460D01*
X751800Y853590D02*
X760880D01*
X750380Y852170D02*
X751800Y853590D01*
X760880D02*
X781050Y873760D01*
X801529Y928369D02*
X804029Y925869D01*
Y920473D02*
Y925869D01*
X739300Y932020D02*
Y948690D01*
X854075Y902335D02*
X854710Y901700D01*
X854075Y902335D02*
Y924084D01*
X853441Y924719D02*
X854075Y924084D01*
X826110Y855030D02*
X852460Y881380D01*
X809650Y855030D02*
X826110D01*
X800259Y930949D02*
Y933449D01*
X853360Y1008460D02*
X853440Y1008380D01*
X807800Y1008460D02*
X853360D01*
X807719Y1008541D02*
X807800Y1008460D01*
X899160Y893400D02*
Y894400D01*
X887140Y881380D02*
X899160Y893400D01*
X854710Y881380D02*
X887140D01*
X852460D02*
X854710D01*
X652781Y1001870D02*
X652781Y1001869D01*
X652781Y1001870D02*
Y1027430D01*
X652780Y1027430D02*
X652781Y1027430D01*
X627120Y827710D02*
X627380Y827450D01*
Y816610D02*
Y827450D01*
X624680Y813910D02*
X627380Y816610D01*
X624680Y787400D02*
Y813910D01*
X601220Y882210D02*
Y915320D01*
Y882210D02*
X601720Y881710D01*
X598330Y918210D02*
X601220Y915320D01*
X396240Y839470D02*
X436880D01*
X500380Y775970D01*
X440690Y538480D02*
X500380Y598170D01*
X440690Y481330D02*
Y538480D01*
X396240Y436880D02*
X440690Y481330D01*
X396240Y574040D02*
X471170Y648970D01*
X500380D01*
X401320Y708660D02*
X417830Y725170D01*
X500380D01*
D24*
X812641Y795021D02*
X813026Y794637D01*
Y772384D02*
Y794637D01*
Y772384D02*
X813410Y772000D01*
X812641Y795021D02*
Y820421D01*
X549680Y869790D02*
X551180D01*
X533400Y853510D02*
X549680Y869790D01*
X533400Y838200D02*
Y853510D01*
Y838200D02*
X552450Y819150D01*
Y784540D02*
Y819150D01*
X574760Y827710D02*
X589020D01*
X552680Y849790D02*
X574760Y827710D01*
X551180Y849790D02*
X552680D01*
X580720Y881710D02*
X589020D01*
X568800Y869790D02*
X580720Y881710D01*
X551180Y869790D02*
X568800D01*
D25*
X1096009Y389890D02*
D03*
X974010D02*
D03*
X954010Y449890D02*
D03*
X1096009Y509890D02*
D03*
X974010D02*
D03*
X971470Y854060D02*
D03*
X1093469D02*
D03*
X951470Y794060D02*
D03*
X971470Y734060D02*
D03*
X1093469D02*
D03*
X965120Y1029320D02*
D03*
X1087119D02*
D03*
X945120Y969320D02*
D03*
X965120Y909320D02*
D03*
X1087119D02*
D03*
X974010Y682610D02*
D03*
X1096009D02*
D03*
X954010Y622610D02*
D03*
X974010Y562610D02*
D03*
X1096009D02*
D03*
D26*
X1176020Y1036320D02*
D03*
Y861907D02*
D03*
Y687493D02*
D03*
Y513080D02*
D03*
D27*
Y985520D02*
D03*
Y934720D02*
D03*
Y811107D02*
D03*
Y760307D02*
D03*
Y636693D02*
D03*
Y585893D02*
D03*
Y462280D02*
D03*
Y411480D02*
D03*
D28*
X750380Y394970D02*
D03*
Y420370D02*
D03*
Y445770D02*
D03*
Y471170D02*
D03*
Y496570D02*
D03*
Y547370D02*
D03*
Y572770D02*
D03*
Y674370D02*
D03*
Y750570D02*
D03*
Y801370D02*
D03*
Y852170D02*
D03*
Y826770D02*
D03*
Y775970D02*
D03*
Y725170D02*
D03*
Y699770D02*
D03*
Y648970D02*
D03*
Y623570D02*
D03*
Y598170D02*
D03*
Y521970D02*
D03*
X500380D02*
D03*
Y598170D02*
D03*
Y623570D02*
D03*
Y648970D02*
D03*
Y699770D02*
D03*
Y725170D02*
D03*
Y775970D02*
D03*
Y826770D02*
D03*
Y852170D02*
D03*
Y801370D02*
D03*
Y750570D02*
D03*
Y674370D02*
D03*
Y572770D02*
D03*
Y547370D02*
D03*
Y496570D02*
D03*
Y471170D02*
D03*
Y445770D02*
D03*
Y420370D02*
D03*
Y394970D02*
D03*
X396240Y864870D02*
D03*
Y839470D02*
D03*
Y814070D02*
D03*
Y548640D02*
D03*
Y574040D02*
D03*
Y436880D02*
D03*
Y462280D02*
D03*
D29*
X750380Y877570D02*
D03*
X500380D02*
D03*
X396240Y788670D02*
D03*
Y523240D02*
D03*
Y411480D02*
D03*
D30*
X369830Y962600D02*
D03*
D31*
X417830Y932600D02*
D03*
Y990600D02*
D03*
D32*
X401320Y708660D02*
D03*
Y638660D02*
D03*
M02*
